<svg width="161" height="20" viewBox="0 0 161 20" fill="none" xmlns="http://www.w3.org/2000/svg">
<path d="M0.675 19V1.25H4.75V19H0.675ZM7.89688 19V6.275H11.6969L11.5219 9C12.0385 8.06667 12.6969 7.35 13.4969 6.85C14.3135 6.33333 15.2219 6.075 16.2219 6.075C17.7385 6.075 18.8719 6.59167 19.6219 7.625C20.3719 8.64167 20.7385 10.1083 20.7219 12.025L20.6719 19H16.8469L16.8969 12.3C16.9135 11.4333 16.7802 10.775 16.4969 10.325C16.2302 9.85833 15.7969 9.625 15.1969 9.625C14.6969 9.625 14.2385 9.775 13.8219 10.075C13.4052 10.3583 13.0385 10.85 12.7219 11.55C12.4219 12.25 12.1802 13.2083 11.9969 14.425C11.8135 15.6417 11.7135 17.1667 11.6969 19H7.89688ZM28.148 19.25C26.298 19.25 24.898 18.9083 23.948 18.225C22.998 17.525 22.4397 16.6083 22.273 15.475L25.448 14.675C25.548 15.1583 25.823 15.55 26.273 15.85C26.723 16.1333 27.3397 16.275 28.123 16.275C29.373 16.275 29.998 15.9833 29.998 15.4C29.998 15.1 29.8147 14.875 29.448 14.725C29.098 14.5583 28.523 14.4 27.723 14.25C26.223 13.9833 25.0564 13.5583 24.223 12.975C23.4064 12.3917 22.998 11.5 22.998 10.3C22.998 9.48333 23.2314 8.75833 23.698 8.125C24.1647 7.49167 24.8064 6.99167 25.623 6.625C26.4397 6.25833 27.3814 6.075 28.448 6.075C29.8314 6.075 30.973 6.4 31.873 7.05C32.7897 7.7 33.3314 8.5 33.498 9.45L30.373 10.3C30.2564 9.93333 30.023 9.63333 29.673 9.4C29.3397 9.16667 28.8814 9.05 28.298 9.05C27.748 9.05 27.3397 9.14167 27.073 9.325C26.823 9.50833 26.698 9.725 26.698 9.975C26.698 10.275 26.873 10.5167 27.223 10.7C27.573 10.8667 28.1897 11.0417 29.073 11.225C29.973 11.3917 30.7647 11.625 31.448 11.925C32.148 12.2083 32.6897 12.6083 33.073 13.125C33.473 13.625 33.673 14.3083 33.673 15.175C33.673 15.9917 33.4314 16.7083 32.948 17.325C32.4814 17.9417 31.8314 18.4167 30.998 18.75C30.1647 19.0833 29.2147 19.25 28.148 19.25ZM41.0877 19.25C39.521 19.25 38.2794 18.8167 37.3627 17.95C36.446 17.0667 35.996 15.9083 36.0127 14.475L36.1127 9.45H34.0127V6.275H36.1627L36.1877 3.675H39.9877L39.9627 6.275H43.9377V9.45H39.9127L39.8377 14.05C39.8377 14.65 39.996 15.1167 40.3127 15.45C40.6294 15.7833 41.1044 15.95 41.7377 15.95C42.1044 15.95 42.4544 15.9083 42.7877 15.825C43.1377 15.725 43.496 15.5417 43.8627 15.275L44.9627 18.2C44.1127 18.9 42.821 19.25 41.0877 19.25ZM58.3119 6.325V19H54.4619L54.5869 17.1C53.6702 18.5333 52.3119 19.25 50.5119 19.25C49.3786 19.25 48.4119 18.9917 47.6119 18.475C46.8119 17.9583 46.2036 17.2417 45.7869 16.325C45.3702 15.4083 45.1619 14.3583 45.1619 13.175C45.1619 11.7583 45.4536 10.5167 46.0369 9.45C46.6202 8.38333 47.4036 7.55833 48.3869 6.975C49.3702 6.375 50.4702 6.075 51.6869 6.075C52.4869 6.075 53.1952 6.24167 53.8119 6.575C54.4286 6.89167 54.9036 7.31667 55.2369 7.85L55.5619 6.325H58.3119ZM52.0619 9.4C51.1452 9.4 50.4202 9.74167 49.8869 10.425C49.3702 11.1083 49.1119 11.9833 49.1119 13.05C49.1119 13.9667 49.3119 14.675 49.7119 15.175C50.1286 15.675 50.6869 15.925 51.3869 15.925C52.2369 15.925 52.9619 15.575 53.5619 14.875C54.1786 14.175 54.4869 13.2583 54.4869 12.125C54.4869 11.275 54.2702 10.6083 53.8369 10.125C53.4036 9.64167 52.8119 9.4 52.0619 9.4ZM61.266 19V6.275H65.066L64.891 9C65.4077 8.06667 66.066 7.35 66.866 6.85C67.6827 6.33333 68.591 6.075 69.591 6.075C71.1077 6.075 72.241 6.59167 72.991 7.625C73.741 8.64167 74.1077 10.1083 74.091 12.025L74.041 19H70.216L70.266 12.3C70.2827 11.4333 70.1493 10.775 69.866 10.325C69.5993 9.85833 69.166 9.625 68.566 9.625C68.066 9.625 67.6077 9.775 67.191 10.075C66.7743 10.3583 66.4077 10.85 66.091 11.55C65.791 12.25 65.5493 13.2083 65.366 14.425C65.1827 15.6417 65.0827 17.1667 65.066 19H61.266ZM82.5672 19.25C81.0005 19.25 79.7589 18.8167 78.8422 17.95C77.9255 17.0667 77.4755 15.9083 77.4922 14.475L77.5922 9.45H75.4922V6.275H77.6422L77.6672 3.675H81.4672L81.4422 6.275H85.4172V9.45H81.3922L81.3172 14.05C81.3172 14.65 81.4755 15.1167 81.7922 15.45C82.1089 15.7833 82.5839 15.95 83.2172 15.95C83.5839 15.95 83.9339 15.9083 84.2672 15.825C84.6172 15.725 84.9755 15.5417 85.3422 15.275L86.4422 18.2C85.5922 18.9 84.3005 19.25 82.5672 19.25ZM103.386 15.525C102.652 16.725 101.644 17.65 100.361 18.3C99.0772 18.9333 97.6522 19.25 96.0855 19.25C94.1689 19.25 92.5272 18.9 91.1605 18.2C89.8105 17.5 88.7689 16.5 88.0355 15.2C87.3189 13.8833 86.9605 12.3083 86.9605 10.475C86.9605 8.59167 87.3605 6.94167 88.1605 5.525C88.9605 4.10833 90.0689 3 91.4855 2.2C92.9189 1.4 94.5689 0.999999 96.4355 0.999999C98.0689 0.999999 99.4439 1.3 100.561 1.9C101.694 2.5 102.644 3.40833 103.411 4.625L100.286 6.85C99.8855 6.08333 99.3355 5.525 98.6355 5.175C97.9355 4.825 97.1855 4.65 96.3855 4.65C95.3355 4.65 94.4189 4.89167 93.6355 5.375C92.8522 5.85833 92.2355 6.53333 91.7855 7.4C91.3522 8.26667 91.1355 9.26667 91.1355 10.4C91.1355 12.05 91.5689 13.3333 92.4355 14.25C93.3022 15.1667 94.5272 15.625 96.1105 15.625C96.9605 15.625 97.7605 15.425 98.5105 15.025C99.2772 14.6083 99.8939 13.9833 100.361 13.15L103.386 15.525ZM113.253 9.975C112.919 9.84167 112.469 9.775 111.903 9.775C111.036 9.775 110.344 10.0833 109.828 10.7C109.311 11.3 108.936 12.2833 108.703 13.65C108.469 15 108.353 16.7833 108.353 19H104.553V10.75L104.503 6.275H108.328L108.153 9.45C108.603 8.23333 109.203 7.36667 109.953 6.85C110.719 6.33333 111.536 6.075 112.403 6.075C112.686 6.075 112.944 6.09167 113.178 6.125C113.428 6.15833 113.678 6.21667 113.928 6.3L113.253 9.975ZM121.032 19.25C119.616 19.25 118.391 18.9917 117.357 18.475C116.324 17.9417 115.524 17.2 114.957 16.25C114.391 15.2833 114.107 14.1417 114.107 12.825C114.107 11.4917 114.391 10.3167 114.957 9.3C115.541 8.28333 116.316 7.49167 117.282 6.925C118.266 6.35833 119.374 6.075 120.607 6.075C122.007 6.075 123.149 6.39167 124.032 7.025C124.916 7.65833 125.524 8.55833 125.857 9.725C126.207 10.875 126.282 12.2167 126.082 13.75H118.007C118.107 14.3833 118.441 14.9167 119.007 15.35C119.574 15.7667 120.349 15.975 121.332 15.975C121.782 15.975 122.257 15.8833 122.757 15.7C123.257 15.5 123.682 15.2083 124.032 14.825L126.157 17.075C125.607 17.7417 124.924 18.275 124.107 18.675C123.307 19.0583 122.282 19.25 121.032 19.25ZM120.682 8.85C120.016 8.85 119.449 9.05 118.982 9.45C118.532 9.85 118.232 10.4083 118.082 11.125H122.857C122.874 10.3417 122.682 9.76667 122.282 9.4C121.899 9.03333 121.366 8.85 120.682 8.85ZM140.929 0.5V19H137.079L137.204 17.125C136.287 18.5417 134.929 19.25 133.129 19.25C131.996 19.25 131.029 18.9917 130.229 18.475C129.429 17.9583 128.821 17.2417 128.404 16.325C127.987 15.4083 127.779 14.3583 127.779 13.175C127.779 11.7583 128.071 10.5167 128.654 9.45C129.237 8.38333 130.021 7.55833 131.004 6.975C131.987 6.375 133.087 6.075 134.304 6.075C134.871 6.075 135.396 6.15833 135.879 6.325C136.362 6.49167 136.779 6.725 137.129 7.025L137.104 6.275V0.5H140.929ZM134.679 9.4C133.762 9.4 133.037 9.74167 132.504 10.425C131.987 11.1083 131.729 11.9833 131.729 13.05C131.729 13.9667 131.929 14.675 132.329 15.175C132.746 15.675 133.304 15.925 134.004 15.925C134.854 15.925 135.579 15.575 136.179 14.875C136.796 14.175 137.104 13.2583 137.104 12.125C137.104 11.275 136.887 10.6083 136.454 10.125C136.021 9.64167 135.429 9.4 134.679 9.4ZM147.708 6.275V19H143.883V6.275H147.708ZM145.783 4.775C145.05 4.775 144.467 4.55 144.033 4.1C143.6 3.65 143.383 3.11667 143.383 2.5C143.383 1.88333 143.592 1.35 144.008 0.899999C144.442 0.449999 145.033 0.224999 145.783 0.224999C146.517 0.224999 147.1 0.449999 147.533 0.899999C147.967 1.35 148.183 1.88333 148.183 2.5C148.183 3.11667 147.967 3.65 147.533 4.1C147.1 4.55 146.517 4.775 145.783 4.775ZM156.346 19.25C154.78 19.25 153.538 18.8167 152.621 17.95C151.705 17.0667 151.255 15.9083 151.271 14.475L151.371 9.45H149.271V6.275H151.421L151.446 3.675H155.246L155.221 6.275H159.196V9.45H155.171L155.096 14.05C155.096 14.65 155.255 15.1167 155.571 15.45C155.888 15.7833 156.363 15.95 156.996 15.95C157.363 15.95 157.713 15.9083 158.046 15.825C158.396 15.725 158.755 15.5417 159.121 15.275L160.221 18.2C159.371 18.9 158.08 19.25 156.346 19.25Z" fill="white"/>
</svg>
