<svg width="58" height="20" viewBox="0 0 58 20" fill="none" xmlns="http://www.w3.org/2000/svg">
<path d="M16.825 1.25L10.725 11.075V19H6.625V11.225L0.325 1.25H4.9L8.825 7.525L12.55 1.25H16.825ZM28.6225 0.5V19H24.7725L24.8975 17.125C23.9808 18.5417 22.6225 19.25 20.8225 19.25C19.6891 19.25 18.7225 18.9917 17.9225 18.475C17.1225 17.9583 16.5141 17.2417 16.0975 16.325C15.6808 15.4083 15.4725 14.3583 15.4725 13.175C15.4725 11.7583 15.7641 10.5167 16.3475 9.45C16.9308 8.38333 17.7141 7.55833 18.6975 6.975C19.6808 6.375 20.7808 6.075 21.9975 6.075C22.5641 6.075 23.0891 6.15833 23.5725 6.325C24.0558 6.49167 24.4725 6.725 24.8225 7.025L24.7975 6.275V0.5H28.6225ZM22.3725 9.4C21.4558 9.4 20.7308 9.74167 20.1975 10.425C19.6808 11.1083 19.4225 11.9833 19.4225 13.05C19.4225 13.9667 19.6225 14.675 20.0225 15.175C20.4391 15.675 20.9975 15.925 21.6975 15.925C22.5475 15.925 23.2725 15.575 23.8725 14.875C24.4891 14.175 24.7975 13.2583 24.7975 12.125C24.7975 11.275 24.5808 10.6083 24.1475 10.125C23.7141 9.64167 23.1225 9.4 22.3725 9.4ZM37.8516 19.25C36.4349 19.25 35.2099 18.9917 34.1766 18.475C33.1432 17.9417 32.3432 17.2 31.7766 16.25C31.2099 15.2833 30.9266 14.1417 30.9266 12.825C30.9266 11.4917 31.2099 10.3167 31.7766 9.3C32.3599 8.28333 33.1349 7.49167 34.1016 6.925C35.0849 6.35833 36.1932 6.075 37.4266 6.075C38.8266 6.075 39.9682 6.39167 40.8516 7.025C41.7349 7.65833 42.3432 8.55833 42.6766 9.725C43.0266 10.875 43.1016 12.2167 42.9016 13.75H34.8266C34.9266 14.3833 35.2599 14.9167 35.8266 15.35C36.3932 15.7667 37.1682 15.975 38.1516 15.975C38.6016 15.975 39.0766 15.8833 39.5766 15.7C40.0766 15.5 40.5016 15.2083 40.8516 14.825L42.9766 17.075C42.4266 17.7417 41.7432 18.275 40.9266 18.675C40.1266 19.0583 39.1016 19.25 37.8516 19.25ZM37.5016 8.85C36.8349 8.85 36.2682 9.05 35.8016 9.45C35.3516 9.85 35.0516 10.4083 34.9016 11.125H39.6766C39.6932 10.3417 39.5016 9.76667 39.1016 9.4C38.7182 9.03333 38.1849 8.85 37.5016 8.85ZM54.1229 6.275H57.9229L53.2479 19H47.7979L43.7979 6.275H47.9479L50.7479 15.85L54.1229 6.275Z" fill="white"/>
</svg>
