<svg width="513" height="331" viewBox="0 0 513 331" fill="none" xmlns="http://www.w3.org/2000/svg">
<path d="M512.548 327.259H0.587891V331H512.548V327.259Z" fill="#85848B"/>
<path d="M406.193 261.199C406.193 264.077 389.419 272.467 369.493 272.467C349.567 272.467 334.042 264.077 334.042 261.199C334.042 258.321 350.192 259.248 370.137 259.248C390.082 259.248 406.193 258.316 406.193 261.199Z" fill="#504F60"/>
<path opacity="0.2" d="M406.193 261.199C406.193 264.077 389.419 272.467 369.493 272.467C349.567 272.467 334.042 264.077 334.042 261.199" fill="black"/>
<path d="M205.526 208.393C208.76 208.807 212.116 209.071 215.214 208.066C215.701 207.915 216.238 207.578 216.189 207.09C216.154 206.913 216.079 206.746 215.97 206.602C214.802 204.851 213.821 202.983 213.043 201.027C213.012 200.925 212.949 200.836 212.863 200.774C212.762 200.737 212.651 200.737 212.55 200.774C211.121 201.149 209.887 202.071 208.468 202.466C207.744 202.665 206.989 202.721 206.243 202.632C205.6 202.559 204.722 202.027 204.136 202.095C204.468 204.227 205.278 206.217 205.526 208.393Z" fill="#1669F0"/>
<path d="M266.689 202.993C268.821 201.53 271.03 199.993 272.289 197.735C272.378 197.6 272.431 197.443 272.44 197.281C272.418 197.122 272.356 196.97 272.259 196.842C271.061 194.936 269.517 193.271 267.708 191.93C266.765 192.597 265.912 193.384 265.172 194.271C264.635 194.837 263.153 195.735 263.138 196.598C263.138 197.086 263.704 197.652 263.967 198.062C264.323 198.588 264.66 199.125 264.982 199.671C265.167 199.939 266.86 202.886 266.689 202.993Z" fill="#1669F0"/>
<path d="M218.205 214.924C218.243 215.427 218.105 215.927 217.814 216.339C217.587 216.568 217.305 216.735 216.995 216.826C212.473 218.446 207.239 216.426 202.727 218.021C201.801 218.348 200.923 218.821 199.991 219.134C198.88 219.468 197.734 219.67 196.577 219.738C194.982 219.89 193.377 219.987 191.777 220.031C190.561 220.117 189.34 220.01 188.158 219.714C187.566 219.563 187.014 219.289 186.536 218.91C186.057 218.531 185.664 218.055 185.382 217.514C185.137 217.029 185.088 216.468 185.246 215.948C185.316 215.77 185.417 215.605 185.543 215.461C185.849 215.118 186.208 214.826 186.606 214.597L188.27 213.524C189.05 212.973 189.897 212.523 190.792 212.188C191.45 211.973 192.148 211.88 192.816 211.7C195.152 211.017 196.938 209.163 198.596 207.383L200.859 204.969C201.071 204.703 201.339 204.488 201.645 204.339C201.958 204.235 202.292 204.203 202.62 204.247C204.819 204.404 206.941 205.115 208.79 206.315C209.263 206.669 209.773 206.97 210.312 207.212C211.639 207.729 213.341 207.339 214.566 206.686C215.146 206.373 215.019 206.198 215.263 205.642C215.507 205.086 216.102 204.73 216.619 205.237C216.775 205.412 216.886 205.623 216.941 205.851C217.429 207.461 217.244 209.193 217.244 210.88C217.229 211.144 217.262 211.409 217.341 211.661C217.466 211.915 217.614 212.157 217.785 212.383C217.82 212.443 217.851 212.504 217.878 212.568C218.176 213.315 218.288 214.124 218.205 214.924Z" fill="#514E7F"/>
<path d="M218.205 214.924C218.243 215.426 218.105 215.926 217.814 216.338C217.587 216.567 217.305 216.735 216.995 216.826C212.473 218.445 207.239 216.426 202.727 218.021C201.801 218.348 200.923 218.821 199.991 219.133C198.88 219.467 197.734 219.67 196.577 219.738C194.982 219.889 193.377 219.987 191.777 220.031C190.561 220.117 189.34 220.01 188.158 219.714C187.566 219.562 187.014 219.288 186.536 218.909C186.057 218.53 185.664 218.055 185.382 217.514C185.137 217.029 185.088 216.468 185.246 215.948C185.316 215.77 185.417 215.605 185.543 215.46C185.807 216.011 185.997 216.743 186.163 217.006C186.387 217.397 186.691 217.735 187.056 217.998C187.421 218.261 187.838 218.444 188.28 218.533C188.94 218.574 189.602 218.489 190.231 218.284C194.328 217.27 198.684 217.255 202.62 215.719C203.971 215.187 205.259 214.48 206.678 214.158C208.098 213.836 209.605 213.924 211.068 213.802C213.38 213.616 215.619 212.919 217.897 212.553C218.191 213.306 218.297 214.12 218.205 214.924Z" fill="#464353"/>
<path d="M277.045 202.695C276.83 204.412 275.742 205.89 274.547 207.144C273.352 208.398 272.001 209.524 271.05 210.968C269.879 212.758 269.353 214.978 267.831 216.49C267.247 217.04 266.59 217.507 265.88 217.88C265.084 218.349 264.242 218.737 263.368 219.036C261.095 219.763 258.646 219.597 256.27 219.421C255.499 219.414 254.736 219.267 254.017 218.987C253.69 218.821 253.377 218.628 253.08 218.412C252.485 218.045 251.984 217.544 251.617 216.948C251.437 216.624 251.386 216.244 251.476 215.885C251.611 215.489 251.845 215.133 252.154 214.851C252.688 214.295 253.262 213.778 253.871 213.305C254.706 212.766 255.458 212.108 256.105 211.353C256.501 210.757 256.793 210.097 256.968 209.402C257.313 208.185 257.524 206.934 257.597 205.671C257.595 204.832 257.681 203.994 257.856 203.173C258.217 201.886 259.173 200.735 259.065 199.403C259.022 199.212 259.039 199.013 259.114 198.832C259.228 198.691 259.386 198.593 259.563 198.554C260.308 198.257 261.094 198.075 261.895 198.013C262.296 197.985 262.698 198.047 263.073 198.194C263.447 198.34 263.785 198.568 264.06 198.861C264.392 199.261 264.611 199.837 265.099 199.993C265.341 200.059 265.594 200.069 265.841 200.022C267.041 199.9 268.309 199.749 269.255 198.974C269.692 198.581 270.044 198.103 270.287 197.568C270.531 197.033 270.661 196.454 270.67 195.867C270.67 195.423 270.47 194.959 271.157 194.891C271.674 194.823 272.084 195.379 272.348 195.72C273.299 196.993 274.274 198.325 274.63 199.876C274.769 199.822 274.916 199.794 275.064 199.793C275.369 199.79 275.669 199.861 275.94 200C276.211 200.138 276.444 200.34 276.62 200.588C277.009 201.217 277.159 201.965 277.045 202.695Z" fill="#514E7F"/>
<path d="M277.044 202.695C276.829 204.412 275.742 205.89 274.547 207.144C273.352 208.397 272 209.524 271.049 210.968C269.879 212.758 269.352 214.978 267.83 216.49C267.246 217.04 266.589 217.507 265.879 217.88C265.083 218.349 264.241 218.737 263.367 219.036C261.094 219.763 258.645 219.597 256.27 219.421C255.498 219.414 254.735 219.267 254.016 218.987C253.689 218.821 253.376 218.628 253.08 218.411C252.484 218.045 251.983 217.544 251.616 216.948C252.073 216.728 252.572 216.609 253.08 216.597C254.133 216.655 254.904 217.651 255.914 217.958C257.352 218.392 258.787 217.377 260.245 217.031C261.196 216.807 262.196 216.865 263.137 216.543C263.922 216.24 264.647 215.801 265.279 215.246C266.145 214.627 266.916 213.884 267.566 213.041C268.107 212.198 268.557 211.301 268.908 210.363C269.678 208.566 270.585 206.831 271.62 205.173C271.773 204.911 271.958 204.668 272.171 204.451C272.4 204.242 272.659 204.095 272.917 203.91C273.893 203.173 274.298 201.959 274.639 200.769C274.732 200.407 274.861 200.055 275.025 199.72C275.329 199.717 275.629 199.788 275.9 199.927C276.171 200.065 276.405 200.267 276.581 200.515C277 201.159 277.165 201.936 277.044 202.695Z" fill="#464353"/>
<path d="M174.763 50.6164C175.978 51.5262 176.977 52.6919 177.69 54.0309C178.373 55.3674 182.309 65.7375 182.08 67.2447C183.363 65.9521 188.421 65.7424 189.719 64.4498C190.26 63.9083 193.182 61.206 193.621 60.5768C194.06 59.9476 197.318 58.6257 197.674 57.9623C199.006 55.5771 188.231 46.5386 189.611 44.1827C189.688 44.0744 189.727 43.9444 189.723 43.812C189.692 43.7008 189.629 43.6009 189.543 43.5242C188.66 42.6218 187.489 42.0608 186.426 41.3926C185.363 40.7243 184.338 39.7927 184.051 38.5635C183.037 39.0303 182.106 39.6597 181.295 40.4268C179.318 42.121 177.375 43.8494 175.466 45.6118C174.72 46.3045 173.276 47.2264 172.929 48.2166C172.52 49.2799 174.051 50.036 174.763 50.6164Z" fill="#A1616A"/>
<path d="M192.206 46.778C190.553 47.8889 189.008 49.1529 187.592 50.5534C186.255 51.8752 184.987 53.4069 184.665 55.2555C184.528 55.9823 184.548 56.7189 184.436 57.4554C183.948 60.6503 181.187 62.9917 179.968 65.9817C179.614 66.9046 179.355 67.8605 179.192 68.8352C178.85 70.6829 178.662 72.556 178.631 74.4349C178.602 76.2543 180.387 77.5079 181.041 79.2053C181.694 80.9028 181.87 82.649 182.202 84.3904C182.826 87.678 183.972 90.8485 185.128 93.9996C187.533 100.643 195.328 119.008 197.733 125.656C205.103 123.808 224.721 119.559 231.248 115.662C233.423 114.364 216.151 99.7261 218.478 98.7164C218.611 98.6957 218.737 98.6443 218.847 98.5664C218.957 98.4885 219.047 98.3861 219.11 98.2674C219.173 98.1486 219.208 98.0168 219.212 97.8822C219.216 97.7477 219.188 97.6141 219.131 97.4921C216.805 87.317 209.527 78.9566 206.225 69.0498C205.078 65.611 203.02 62.6746 201.459 59.4065C200.045 56.4457 199.289 53.1727 197.596 50.3583C197.277 49.7784 196.859 49.2585 196.362 48.8218C195.94 48.4981 195.483 48.2216 195.001 47.9974C194.035 47.5292 193.138 47.2511 192.206 46.778Z" fill="#514E7F"/>
<path d="M175.153 49.4604C181.524 49.4604 186.689 44.2956 186.689 37.9245C186.689 31.5534 181.524 26.3886 175.153 26.3886C168.782 26.3886 163.617 31.5534 163.617 37.9245C163.617 44.2956 168.782 49.4604 175.153 49.4604Z" fill="#A1616A"/>
<path d="M186.889 43.3438C187.464 42.8135 188.186 42.47 188.96 42.3585C189.735 42.247 190.524 42.3729 191.225 42.7194C192.006 43.1243 192.689 43.9437 192.513 44.8022L198.235 44.89C199.146 44.8651 200.056 44.9486 200.947 45.1388C201.844 45.334 202.644 45.836 203.21 46.5582C203.278 46.6509 203.356 46.7631 203.474 46.7777C203.569 46.7792 203.662 46.7482 203.737 46.6899C204.617 46.2485 205.609 46.0787 206.586 46.2021C209.678 46.4021 212.536 47.9484 214.961 49.88C215.398 50.1805 215.737 50.6028 215.936 51.0945C216.136 51.7433 215.897 52.5578 216.424 53.0212C216.424 58.3868 218.268 63.4011 219.497 68.6301C219.716 69.5617 220.609 70.3861 221.229 71.1177C221.994 71.9289 222.619 72.8619 223.077 73.8785C224.121 76.5906 222.682 79.7806 223.697 82.5024C224.126 83.6536 224.955 84.5999 225.648 85.5998C226.561 86.7544 227.138 88.1383 227.316 89.5996C227.36 90.2532 227.277 90.9117 227.316 91.5507C227.381 92.4295 227.545 93.2983 227.804 94.1408C228.22 95.7146 228.656 97.2869 229.111 98.8575C229.852 101.394 230.818 104.13 233.091 105.482C227.604 106.413 221.819 107.325 216.59 105.418C215.86 105.169 215.168 104.823 214.531 104.389C212.644 103.043 211.732 100.74 210.917 98.5649C210.01 96.126 209.088 93.6432 208.902 91.0483C208.904 90.2229 208.788 89.4016 208.556 88.6094C208.024 87.1948 206.605 86.3412 205.317 85.5559C203.863 84.7591 202.546 83.7348 201.415 82.5219C200.854 81.911 200.424 81.1915 200.153 80.4079C199.881 79.6243 199.773 78.7932 199.835 77.9661C199.932 77.1613 200.249 76.3857 200.279 75.576C200.308 74.7663 199.947 73.8395 199.171 73.6249C195.176 72.4152 193.269 67.6838 192.382 63.606C191.998 61.4984 191.827 59.3578 191.869 57.2161L191.816 53.0554C191.264 52.5538 190.821 51.9453 190.512 51.2669C190.204 50.5885 190.036 49.8544 190.021 49.1093C190.074 48.6745 190.065 48.2345 189.996 47.802C189.803 47.2734 189.489 46.7973 189.079 46.4119C188.197 45.5067 187.459 44.472 186.889 43.3438Z" fill="#464353"/>
<path d="M174.602 56.5329C174.47 57.8207 174.763 59.1425 174.475 60.4059C174.363 60.8937 174.168 61.3814 174.026 61.8351C173.594 63.6534 173.781 65.5641 174.558 67.264C175.334 68.9472 176.263 70.5555 177.334 72.0686C177.696 72.5851 177.994 73.1436 178.221 73.7319C178.406 74.3496 178.52 74.9861 178.563 75.6294C178.845 78.2124 179.298 80.7739 179.919 83.2972C180.465 85.4824 186.67 104.164 188.113 105.896C188.375 106.279 188.773 106.549 189.226 106.652C189.552 106.664 189.877 106.597 190.172 106.457L193.099 105.335C193.347 105.259 193.578 105.133 193.777 104.964C194.051 104.644 194.2 104.235 194.196 103.813C194.406 101.433 188.187 82.6192 187.396 80.3705C185.006 73.5807 181.826 67.0348 180.27 60.0059C179.836 58.0548 179.607 55.0501 178.177 53.4941C177.587 52.8502 177.787 53.1234 177.08 53.4599C176.723 53.615 176.377 53.796 176.046 54.0014C175.632 54.2892 175.287 54.6658 175.038 55.1038C174.788 55.5418 174.639 56.0301 174.602 56.5329Z" fill="#464353"/>
<path d="M183.485 69.4151C184.27 73.5661 185.08 77.7073 185.885 81.8583L197.338 78.8584C197.43 77.6585 196.791 76.5464 196.362 75.444C195.318 72.8247 195.294 69.9078 194.45 67.2152C193.811 65.1666 192.699 63.2838 192.099 61.2205C191.753 60.0205 191.577 58.7816 191.236 57.567C190.869 56.3743 190.419 55.2089 189.889 54.0794C189.246 52.4414 188.408 50.8872 187.392 49.4504C185.929 49.9967 184.368 50.6309 183.534 51.9527C183.106 52.6975 182.862 53.5336 182.821 54.3916C182.621 56.9622 183.553 59.5474 183.246 62.1033C182.929 64.5375 183.01 67.0068 183.485 69.4151Z" fill="white"/>
<path d="M197.527 124.632C198.171 127.071 197.239 129.636 196.478 132.051C195.333 135.688 194.552 139.429 194.147 143.221C194.097 144.186 193.903 145.138 193.571 146.045C193.21 146.86 192.596 147.547 192.176 148.323C191.025 150.362 191.054 152.85 191.303 155.181C191.469 156.718 191.718 158.249 192.025 159.761C192.401 161.61 192.864 163.542 192.323 165.346C193.23 165.146 193.844 166.322 193.786 167.244C193.727 168.166 193.43 169.195 193.874 169.99C194.996 170.4 195.005 171.941 194.971 173.136C194.99 175.208 195.252 177.271 195.752 179.282C197.449 187.444 199.251 195.584 201.156 203.7C205.278 204.978 210.092 206.31 214.024 204.539C214.755 204.212 215.487 203.69 215.653 202.9C215.696 202.474 215.642 202.044 215.497 201.642L213.633 194.862C213.18 193.223 212.726 191.53 212.965 189.847C213.146 188.594 213.692 187.243 213.077 186.135C212.868 185.755 212.536 185.457 212.292 185.096C211.317 183.667 211.829 181.755 211.907 180.024C211.937 179.635 211.911 179.244 211.829 178.863C211.695 178.418 211.508 177.99 211.273 177.59C209.733 174.6 208.993 171.263 209.126 167.902C209.185 167.474 209.126 167.037 208.956 166.639C208.837 166.475 208.731 166.302 208.639 166.122C208.566 165.809 208.602 165.48 208.741 165.19C208.182 164.766 207.677 164.275 207.239 163.727C207.509 163.559 207.738 163.331 207.908 163.062C208.078 162.792 208.184 162.488 208.219 162.171C208.253 161.854 208.216 161.534 208.109 161.234C208.001 160.934 207.827 160.662 207.6 160.439C207.799 160.399 207.983 160.305 208.131 160.167C208.28 160.028 208.387 159.851 208.441 159.656C208.495 159.46 208.494 159.254 208.437 159.059C208.381 158.864 208.272 158.688 208.122 158.552C207.883 158.386 207.566 158.313 207.395 158.064C207.131 157.703 207.346 157.201 207.561 156.815L208.697 154.762C209.546 153.235 209.736 151.347 210.648 149.884C211.956 147.752 212.809 145.377 213.653 143.026L216.936 133.968L219.145 135.885C219.881 136.447 220.498 137.15 220.96 137.953C221.274 138.746 221.473 139.581 221.55 140.431C222.36 145.348 225.452 149.611 226.599 154.454C226.852 155.532 227.023 156.664 227.642 157.586C227.864 157.869 228.063 158.169 228.238 158.483C228.399 158.963 228.483 159.465 228.486 159.971C228.589 160.962 228.903 161.919 229.408 162.777C229.913 163.636 230.597 164.376 231.413 164.946C232.501 165.693 233.852 166.205 234.442 167.385C234.56 167.751 234.724 168.1 234.93 168.424C235.457 169.058 236.593 169.132 236.818 169.927C236.944 170.37 236.71 170.902 236.959 171.292C237.1 171.473 237.287 171.613 237.5 171.697L240.676 173.282C244.227 175.058 246.041 179.136 248.661 182.106C249.565 183.074 250.366 184.133 251.051 185.267C252.182 187.291 252.704 189.833 254.616 191.12C255.13 191.387 255.598 191.734 256.002 192.15C256.602 192.94 256.382 194.047 256.436 195.042C256.489 196.037 257.25 197.223 258.197 196.92C257.865 198.125 257.865 199.398 258.197 200.603C262.351 200.389 266.313 198.785 269.445 196.047C270.372 195.237 271.264 194.203 271.274 192.974C271.288 192.762 271.241 192.55 271.137 192.364C270.95 192.124 270.703 191.937 270.42 191.823C267.45 190.213 266.557 186.482 265.055 183.453C263.743 180.78 261.801 178.477 260.177 175.995C256.646 170.653 254.236 164.19 248.895 160.664C247.719 159.888 246.354 159.2 245.763 157.918C245.436 157.201 245.397 156.381 245.139 155.64C244.88 154.898 244.261 154.176 243.471 154.176C243.91 153.103 243.822 151.796 243.851 150.635C243.881 150.12 243.822 149.603 243.676 149.108C243.473 148.576 243.209 148.068 242.89 147.596C241.497 145.237 240.8 142.531 240.881 139.792C240.92 138.382 241.168 136.929 240.744 135.582C240.529 134.904 240.154 134.285 239.895 133.631C239.506 132.447 239.3 131.21 239.286 129.963L238.993 125.276C238.949 123.714 238.746 122.162 238.388 120.642C237.413 117.003 236.437 101.76 233.096 100.043C229.755 98.3259 224.013 110.057 220.253 110.286C218.589 110.355 216.945 110.673 215.375 111.228C212.873 112.164 210.775 113.91 208.731 115.618L201.815 121.427C200.351 122.632 199.142 123.783 197.527 124.632Z" fill="#464353"/>
<path d="M164.329 25.1159C165.851 23.038 168.465 21.9356 171.041 21.8429C173.616 21.7502 176.153 22.5599 178.46 23.7062C179.141 24.0935 179.869 24.3918 180.625 24.594C181.845 24.8427 183.201 24.511 184.303 25.0817C185.767 25.8573 186.05 27.8328 185.923 29.4717C185.796 31.1107 185.489 32.9301 186.362 34.3495C186.671 34.7543 186.953 35.1796 187.206 35.6226C187.581 36.4664 187.362 37.442 187.137 38.3346C186.567 37.8468 186.245 37.1103 185.737 36.5445C185.23 35.9787 184.347 35.5982 183.718 36.0226C183.089 36.4469 183.099 37.2176 183.064 37.9103C183.03 38.6029 182.855 39.4321 182.201 39.6565C181.928 39.7186 181.643 39.6974 181.382 39.5957C181.121 39.494 180.897 39.3164 180.738 39.0858C179.621 37.72 180.069 35.5397 178.962 34.1641C178.333 33.3837 177.284 33.0032 176.704 32.1838C176.245 31.5399 176.128 30.7204 175.728 30.0278C175.328 29.3352 174.397 28.8279 173.777 29.3059C173.566 29.5079 173.389 29.7436 173.255 30.0034C172.869 30.5567 172.307 30.9636 171.661 31.1583C171.015 31.353 170.322 31.3242 169.694 31.0765C169.215 30.7821 168.696 30.5571 168.153 30.4083C167.798 30.3905 167.445 30.4724 167.133 30.6448C166.822 30.8172 166.566 31.0732 166.392 31.3838C166.042 32.0045 165.873 32.7108 165.904 33.4227C165.904 34.3983 166.08 35.4372 165.524 36.2177C165.312 36.5115 165.048 36.763 164.744 36.9591C163.929 37.481 162.792 37.8322 162.041 37.2371C161.787 37 161.597 36.7014 161.491 36.3699C161.385 36.0385 161.366 35.6854 161.436 35.3446C161.583 34.6656 161.775 33.9975 162.012 33.3447C162.441 31.8326 161.88 30.1302 162.349 28.7059C162.839 27.4232 163.506 26.215 164.329 25.1159Z" fill="#464353"/>
<path d="M170.51 59.5282C170.437 59.8837 170.474 60.2531 170.617 60.5867C170.762 60.8138 170.96 61.0028 171.193 61.1378C172.833 62.1597 174.699 62.7643 176.627 62.8987C176.889 62.9032 177.147 62.9701 177.378 63.0938C177.837 63.3962 177.866 64.0694 177.695 64.6059C177.467 65.1121 177.349 65.6606 177.349 66.2156C177.49 67.235 178.7 67.6789 179.719 67.8301C181.149 68.0106 182.714 67.9179 183.846 67.0253C184.613 66.3261 185.197 65.4504 185.548 64.4742C188.348 58.0405 189.329 50.9287 192.163 44.5144C192.377 44.0956 192.521 43.6439 192.587 43.1779C192.617 42.9447 192.584 42.7076 192.491 42.4915C192.399 42.2753 192.25 42.0879 192.06 41.9487C191.533 41.6219 190.714 41.8073 190.358 41.2951C190.182 41.0366 190.202 40.6854 190.046 40.4122C189.719 39.8318 188.86 39.9245 188.275 39.5879C187.816 39.344 187.499 38.8416 186.987 38.744C186.736 38.7298 186.485 38.7745 186.253 38.8744C186.022 38.9743 185.818 39.1267 185.656 39.3196C183.992 40.8707 183.119 43.0706 182.192 45.1485C180.777 48.3337 179.12 51.4059 177.237 54.3382C177.456 53.9968 176.183 51.4116 175.685 51.2994C174.812 51.1238 173.695 52.6554 173.222 53.2261C171.737 55.0263 170.797 57.2124 170.51 59.5282Z" fill="white"/>
<path opacity="0.1" d="M188.23 40.0415C187.88 40.0473 187.535 40.1319 187.222 40.2889C186.909 40.446 186.635 40.6715 186.421 40.9487C185.899 41.6267 185.796 42.5242 185.665 43.3876C185.221 46.1229 184.244 48.7446 182.792 51.1042" fill="black"/>
<path opacity="0.1" d="M190.718 41.9876C190.234 41.9984 189.762 42.135 189.347 42.3839C188.932 42.6327 188.589 42.9854 188.352 43.4071C188.029 44.1743 187.828 44.9873 187.757 45.8167C187.339 47.6554 186.532 49.3833 185.391 50.8847" fill="black"/>
<path d="M306.643 137.348V131.29C306.642 126.83 304.869 122.554 301.715 119.401C298.561 116.248 294.284 114.476 289.825 114.476H50.5753C46.1156 114.476 41.8385 116.248 38.6846 119.401C35.5306 122.554 33.7581 126.83 33.7568 131.29V142.46L306.643 137.348Z" fill="#33323D"/>
<path d="M117.132 107.374C117.132 107.374 116.449 149.742 123.961 163.683C131.473 177.624 134.692 238.269 134.692 238.269C134.692 238.269 213.439 246.415 268.314 228.513C323.188 210.612 439.952 203.291 439.952 203.291L420.275 70.6691C420.275 70.6691 323.067 64.4353 267.767 90.8094C212.468 117.183 117.132 107.374 117.132 107.374Z" fill="#8DD070"/>
<path opacity="0.1" d="M117.132 107.374C117.132 107.374 116.449 149.742 123.961 163.683C131.473 177.624 134.692 238.269 134.692 238.269C134.692 238.269 213.439 246.415 268.314 228.513C323.188 210.612 439.952 203.291 439.952 203.291L420.275 70.6691C420.275 70.6691 323.067 64.4353 267.767 90.8094C212.468 117.183 117.132 107.374 117.132 107.374Z" fill="black"/>
<path d="M134.561 122.851C134.561 122.851 132.098 157.81 138.278 168.98C144.458 180.15 144.746 230.015 144.746 230.015C144.746 230.015 215.615 233.303 266.026 216.143C316.438 198.983 422.373 187.852 422.373 187.852L410.335 79.395C410.335 79.395 322.681 78.4926 271.523 102.647C220.365 126.802 134.561 122.851 134.561 122.851Z" fill="#8DD070"/>
<path opacity="0.1" d="M270.744 196.286C280.828 195.03 286.818 176.48 284.125 154.853C281.431 133.226 271.073 116.713 260.989 117.969C250.906 119.225 244.915 137.775 247.609 159.401C250.303 181.028 260.661 197.542 270.744 196.286Z" fill="black"/>
<path opacity="0.2" d="M366.981 6.0631C366.981 6.0631 272.543 29.9641 228.009 72.0348C183.475 114.105 89.7246 134.026 89.7246 134.026C89.7246 134.026 102.075 174.556 113.499 185.521C124.923 196.486 146.59 253.224 146.59 253.224C146.59 253.224 224.034 236.805 270.763 202.915C317.492 169.024 426.397 126.222 426.397 126.222L366.981 6.0631Z" fill="black"/>
<path d="M88.3052 127.958C88.3052 127.958 100.651 168.492 112.065 179.458C123.479 190.423 145.155 247.156 145.155 247.156C145.155 247.156 222.609 230.742 269.343 196.852C316.077 162.961 424.973 120.173 424.973 120.173L365.557 0C365.557 0 271.124 23.901 226.59 65.9717C182.056 108.042 88.3052 127.958 88.3052 127.958Z" fill="#8DD070"/>
<path opacity="0.1" d="M88.3052 127.958C88.3052 127.958 100.651 168.492 112.065 179.458C123.479 190.423 145.155 247.156 145.155 247.156C145.155 247.156 222.609 230.742 269.343 196.852C316.077 162.961 424.973 120.173 424.973 120.173L365.557 0C365.557 0 271.124 23.901 226.59 65.9717C182.056 108.042 88.3052 127.958 88.3052 127.958Z" fill="black"/>
<path d="M109.625 137.343C109.625 137.343 118.01 171.375 127.322 180.106C136.633 188.837 152.198 236.2 152.198 236.2C152.198 236.2 220.653 217.577 263.367 185.774C306.082 153.971 403.5 110.915 403.5 110.915L358.766 11.3503C358.766 11.3503 275.069 37.3829 233.788 76.0733C192.508 114.764 109.625 137.343 109.625 137.343Z" fill="#8DD070"/>
<path opacity="0.1" d="M261.788 165.443C270.999 161.153 271.009 141.66 261.809 121.903C252.608 102.147 237.683 89.608 228.471 93.8976C219.259 98.1872 219.25 117.681 228.45 137.437C237.65 157.194 252.576 169.732 261.788 165.443Z" fill="black"/>
<path opacity="0.1" d="M313.101 143.294V311.577C313.101 313.488 312.725 315.38 311.993 317.146C311.262 318.912 310.19 320.516 308.838 321.867C307.486 323.218 305.882 324.29 304.116 325.021C302.35 325.752 300.457 326.128 298.546 326.127H48.317C44.4588 326.126 40.7591 324.592 38.0315 321.864C35.3038 319.135 33.7715 315.435 33.7715 311.577V126.329C40.9418 128.992 40.9418 128.992 48.317 128.768H298.546C302.401 128.768 306.099 130.298 308.828 133.021C311.557 135.744 313.094 139.439 313.101 143.294Z" fill="black"/>
<path d="M313.101 145.435V313.718C313.1 317.577 311.566 321.278 308.836 324.007C306.107 326.735 302.405 328.268 298.546 328.268H48.317C44.4588 328.267 40.7591 326.733 38.0315 324.005C35.3038 321.276 33.7715 317.576 33.7715 313.718V128.465C40.9418 131.124 40.9418 131.124 48.317 130.904H298.546C302.402 130.904 306.101 132.434 308.83 135.159C311.558 137.883 313.095 141.579 313.101 145.435Z" fill="#504F60"/>
<path opacity="0.1" d="M312.389 207.651V261.467H260.197C253.123 261.372 246.371 258.495 241.403 253.459C236.434 248.423 233.648 241.633 233.648 234.559C233.648 227.485 236.434 220.695 241.403 215.659C246.371 210.623 253.123 207.746 260.197 207.651H312.389Z" fill="black"/>
<path d="M313.101 206.217V260.043H260.909C253.835 259.948 247.084 257.071 242.115 252.035C237.147 246.999 234.361 240.209 234.361 233.135C234.361 226.06 237.147 219.27 242.115 214.235C247.084 209.199 253.835 206.322 260.909 206.226L313.101 206.217Z" fill="#33323D"/>
<path opacity="0.1" d="M263.411 245.054C269.206 245.054 273.904 240.356 273.904 234.562C273.904 228.767 269.206 224.07 263.411 224.07C257.617 224.07 252.919 228.767 252.919 234.562C252.919 240.356 257.617 245.054 263.411 245.054Z" fill="black"/>
<path d="M264.123 243.629C269.918 243.629 274.615 238.932 274.615 233.137C274.615 227.343 269.918 222.645 264.123 222.645C258.329 222.645 253.631 227.343 253.631 233.137C253.631 238.932 258.329 243.629 264.123 243.629Z" fill="white"/>
<path d="M403.695 205.754C404.11 210.246 400.71 214.607 401.7 219.006C401.915 219.948 402.32 220.836 402.466 221.787C402.876 224.401 401.32 226.874 399.832 229.06L387.052 247.81C386.541 248.634 385.928 249.391 385.228 250.063C382.789 252.239 379.121 252.014 375.912 252.663C373.655 253.121 371.525 254.063 369.668 255.424C369.59 255.49 369.541 255.584 369.53 255.685C369.519 255.787 369.548 255.889 369.609 255.97C370.14 256.692 370.843 257.27 371.654 257.651C372.465 258.032 373.359 258.204 374.253 258.151C374.59 258.594 374.253 259.243 373.765 259.56C373.078 260.048 372.136 260.165 372 261.326C371.951 261.731 372.033 262.141 372.234 262.497C372.749 263.285 373.55 263.843 374.468 264.053C378.892 265.404 383.672 263.028 386.984 259.794C390.296 256.56 392.672 252.478 395.92 249.185C397.72 247.366 399.764 245.805 401.617 244.039C405.315 240.517 408.188 236.235 410.963 231.947C411.797 230.655 412.636 229.328 412.987 227.83C413.339 226.333 413.173 224.821 413.568 223.372C414.085 221.47 415.475 219.958 416.631 218.363C418.899 215.241 420.411 211.422 420.114 207.578C419.816 203.734 417.431 199.934 413.802 198.627C412.677 198.176 411.437 198.1 410.266 198.413C408.778 198.871 407.68 200.1 406.666 201.276L404.227 204.081C403.619 204.696 403.138 205.425 402.812 206.227C402.656 206.629 402.619 207.068 402.706 207.491C402.792 207.914 402.998 208.303 403.3 208.612" fill="#FBBEBE"/>
<path opacity="0.05" d="M403.695 205.754C404.11 210.246 400.71 214.607 401.7 219.006C401.915 219.948 402.32 220.836 402.466 221.787C402.876 224.401 401.32 226.874 399.832 229.06L387.052 247.81C386.541 248.634 385.928 249.391 385.228 250.063C382.789 252.239 379.121 252.014 375.912 252.663C373.655 253.121 371.525 254.063 369.668 255.424C369.59 255.49 369.541 255.584 369.53 255.685C369.519 255.787 369.548 255.889 369.609 255.97C370.14 256.692 370.843 257.27 371.654 257.651C372.465 258.032 373.359 258.204 374.253 258.151C374.59 258.594 374.253 259.243 373.765 259.56C373.078 260.048 372.136 260.165 372 261.326C371.951 261.731 372.033 262.141 372.234 262.497C372.749 263.285 373.55 263.843 374.468 264.053C378.892 265.404 383.672 263.028 386.984 259.794C390.296 256.56 392.672 252.478 395.92 249.185C397.72 247.366 399.764 245.805 401.617 244.039C405.315 240.517 408.188 236.235 410.963 231.947C411.797 230.655 412.636 229.328 412.987 227.83C413.339 226.333 413.173 224.821 413.568 223.372C414.085 221.47 415.475 219.958 416.631 218.363C418.899 215.241 420.411 211.422 420.114 207.578C419.816 203.734 417.431 199.934 413.802 198.627C412.677 198.176 411.437 198.1 410.266 198.413C408.778 198.871 407.68 200.1 406.666 201.276L404.227 204.081C403.619 204.696 403.138 205.425 402.812 206.227C402.656 206.629 402.619 207.068 402.706 207.491C402.792 207.914 402.998 208.303 403.3 208.612" fill="black"/>
<path d="M413.368 321.405C410.578 323.108 407.1 323.21 403.857 322.815C403.335 322.752 402.715 322.712 402.393 323.117C401.906 323.703 402.481 324.581 403.076 325.034C404.99 326.471 407.237 327.396 409.608 327.722C411.724 328.022 413.86 328.164 415.997 328.146C421.851 328.249 427.704 328.346 433.465 327.507C433.806 327.482 434.138 327.385 434.44 327.224C434.812 326.964 435.07 326.571 435.162 326.127C435.557 324.625 434.796 323.015 433.645 321.971C432.494 320.927 431.016 320.347 429.572 319.786L424.499 317.81C423.309 317.347 421.402 316.118 420.109 316.215C417.68 316.391 415.383 320.225 413.368 321.405Z" fill="#3F3D56"/>
<path opacity="0.05" d="M413.368 321.405C410.578 323.108 407.1 323.21 403.857 322.815C403.335 322.752 402.715 322.712 402.393 323.117C401.906 323.703 402.481 324.581 403.076 325.034C404.99 326.471 407.237 327.396 409.608 327.722C411.724 328.022 413.86 328.164 415.997 328.146C421.851 328.249 427.704 328.346 433.465 327.507C433.806 327.482 434.138 327.385 434.44 327.224C434.812 326.964 435.07 326.571 435.162 326.127C435.557 324.625 434.796 323.015 433.645 321.971C432.494 320.927 431.016 320.347 429.572 319.786L424.499 317.81C423.309 317.347 421.402 316.118 420.109 316.215C417.68 316.391 415.383 320.225 413.368 321.405Z" fill="black"/>
<path d="M416.924 254.063C414.812 256.873 412.627 260.116 413.149 263.594C413.432 265.467 414.481 267.121 415.251 268.852C416.295 271.203 416.841 273.73 417.378 276.247C418.168 279.925 418.963 283.612 419.446 287.349C419.997 291.568 417.407 303.777 417.168 308.026C417.11 309.05 416.988 310.157 416.276 310.894C415.998 311.186 415.627 311.421 415.5 311.801C415.426 312.168 415.486 312.549 415.671 312.874C416.861 315.557 419.295 317.557 422.012 318.698C424.729 319.84 431.28 321.81 434.24 321.913C434.631 321.956 435.026 321.904 435.392 321.761C435.785 321.521 436.095 321.165 436.279 320.742C438.401 316.684 436.362 302.255 436.391 297.675C436.421 293.856 437.323 290.061 437.157 286.246C437.021 283.183 436.182 280.188 435.904 277.135C435.416 272.13 436.333 267.101 437.255 262.155C437.957 258.36 438.665 254.565 439.567 250.819C440.118 248.532 440.757 246.224 442.006 244.239C442.981 242.664 444.352 241.347 445.489 239.849C448.643 235.713 450.045 230.503 449.391 225.343C449.322 224.855 442.074 227.182 441.435 227.46C438.828 228.564 436.429 230.106 434.343 232.02C432.665 233.62 431.343 235.757 429.875 237.547C427.797 240.08 425.745 242.631 423.719 245.2C421.407 248.136 419.142 251.091 416.924 254.063Z" fill="#464353"/>
<path opacity="0.05" d="M416.924 253.892C414.812 256.702 412.627 259.951 413.149 263.424C413.432 265.301 414.481 266.955 415.251 268.687C416.295 271.033 416.841 273.564 417.378 276.076C418.168 279.759 418.963 283.447 419.446 287.178C419.997 291.402 417.407 303.606 417.168 307.855C417.11 308.879 416.988 309.991 416.276 310.728C415.998 311.016 415.627 311.25 415.5 311.63C415.425 311.997 415.486 312.378 415.671 312.704C416.861 315.391 419.295 317.386 422.012 318.557C424.729 319.727 431.28 320.747 434.24 320.844C434.631 320.887 435.026 320.836 435.392 320.693C435.786 320.456 436.097 320.101 436.279 319.679C438.401 315.62 436.362 302.119 436.391 297.534C436.421 293.71 437.323 289.92 437.157 286.1C437.021 283.037 436.182 280.042 435.904 276.993C435.416 271.984 436.333 266.955 437.255 262.009C437.957 258.219 438.665 254.424 439.567 250.673C440.118 248.385 440.757 246.078 442.006 244.093C442.981 242.517 444.352 241.2 445.489 239.703C448.644 235.568 450.046 230.357 449.391 225.196C449.322 224.709 442.074 227.035 441.435 227.313C438.829 228.421 436.43 229.965 434.343 231.879C432.665 233.474 431.343 235.611 429.875 237.401C427.797 239.934 425.745 242.487 423.719 245.059C421.407 247.972 419.142 250.917 416.924 253.892Z" fill="black"/>
<path d="M393.424 192.184C399.962 192.184 405.262 186.883 405.262 180.345C405.262 173.807 399.962 168.507 393.424 168.507C386.885 168.507 381.585 173.807 381.585 180.345C381.585 186.883 386.885 192.184 393.424 192.184Z" fill="#FBBEBE"/>
<path d="M404.086 179.848C405.18 181.592 406.614 183.099 408.303 184.277C409.991 185.455 411.9 186.281 413.915 186.706L413.022 189.95C411.481 195.52 409.749 201.412 405.447 205.275C405.935 203.388 405.311 201.373 404.247 199.734C403.184 198.095 401.691 196.808 400.228 195.535L393.414 189.633C393.217 189.472 393.052 189.277 392.926 189.057C392.758 188.641 392.758 188.176 392.926 187.759C393.794 185.057 396.272 183.369 398.291 181.545C399.305 180.602 400.21 179.548 400.989 178.404C402.35 176.463 403.194 178.414 404.086 179.848Z" fill="#FBBEBE"/>
<path d="M377.829 168.444L377.561 166.219C379.429 166.707 381.204 165.117 382.399 163.473C383.594 161.829 384.702 159.893 386.521 159.205C388.731 158.376 391.072 159.693 393.184 160.805C395.549 162.117 398.144 162.962 400.828 163.293C401.256 163.307 401.68 163.376 402.091 163.498C403.466 163.985 404.12 165.712 404.32 167.278C404.52 168.844 404.466 170.507 405.144 171.902C405.632 172.96 406.539 173.746 407.096 174.79C408.559 177.589 407.144 181.419 408.671 184.165L404.876 180.687C404.53 180.37 404.042 180.038 403.657 180.306C403.354 180.521 403.33 180.984 403.208 181.355C402.842 182.438 401.486 182.76 400.506 182.331C399.525 181.901 398.808 180.97 398.067 180.121C396.389 178.141 394.389 176.399 392.048 175.555C391.021 175.172 389.925 175.011 388.832 175.083C387.739 175.155 386.673 175.459 385.707 175.975C383.936 176.975 382.638 179.306 380.468 179.389C377.492 179.502 376.253 173.96 374.878 171.77C375.381 171.392 375.735 170.848 375.878 170.234C376.021 169.621 375.943 168.976 375.658 168.414C375.858 168.331 377.785 168.102 377.829 168.444Z" fill="#464353"/>
<path d="M231.404 99.2334C230.453 100.079 229.573 101.003 228.775 101.994C227.971 102.999 227.543 104.253 227.565 105.54C227.569 105.914 227.689 106.276 227.906 106.579C228.018 106.724 228.172 106.831 228.347 106.884C228.521 106.938 228.709 106.935 228.882 106.877C229.078 106.777 229.246 106.629 229.37 106.448C229.885 105.828 230.432 105.235 231.009 104.672C231.218 104.462 231.496 104.243 231.779 104.321C231.906 104.366 232.02 104.441 232.111 104.54C232.439 104.824 232.678 105.197 232.799 105.613C232.97 106.36 232.535 107.106 232.043 107.691C231.55 108.277 230.97 108.838 230.77 109.574C230.694 109.769 230.694 109.985 230.77 110.179C230.864 110.32 230.996 110.431 231.15 110.501C231.849 110.886 232.623 111.112 233.419 111.164C234.215 111.217 235.012 111.093 235.755 110.803C236.73 110.408 237.599 109.73 238.603 109.379C239.038 109.26 239.46 109.097 239.862 108.891C240.149 108.7 240.396 108.454 240.588 108.167C240.779 107.879 240.912 107.557 240.979 107.218C241.106 106.541 241.13 105.849 241.052 105.165C240.93 102.515 240.363 99.9046 239.374 97.4433C239.317 97.2845 239.219 97.1433 239.091 97.0335C238.944 96.9441 238.775 96.8984 238.603 96.9018C237.355 96.7701 235.306 96.1311 234.101 96.5945C233.68 96.8256 233.316 97.1491 233.038 97.5408C232.814 97.7896 231.404 98.9066 231.404 99.2334Z" fill="#A1616A"/>
<path d="M231.009 98.1309C231.009 96.9407 229.545 94.0677 231.872 93.8775C231.872 92.6044 230.072 91.8142 230.409 90.4631C230.516 90.0143 230.897 89.6485 230.94 89.1899C231.087 87.8876 228.736 87.1803 229.126 85.9316C229.272 85.4438 229.789 85.1609 229.901 84.678C230.165 83.5513 228.15 83.0489 228.111 81.8928C228.111 81.5026 228.331 81.1368 228.311 80.7465C228.311 80.2588 227.887 79.8881 227.653 79.4637C227.043 78.376 227.341 76.6931 226.228 76.1322C226.965 76.1956 227.204 75.103 226.902 74.4347C226.599 73.7665 225.98 73.186 225.975 72.4446C226.011 72.1759 226.011 71.9036 225.975 71.6349C225.77 70.9227 224.604 70.8642 224.409 70.1716C224.384 69.9057 224.376 69.6385 224.385 69.3716C224.307 68.8204 223.741 68.4692 223.209 68.3131C222.657 68.2193 222.125 68.0295 221.639 67.7522C221.297 67.4937 220.902 67.0644 220.536 67.2644C220.4 67.3473 220.331 67.5034 220.229 67.6205C219.79 68.1327 218.951 67.9083 218.4 67.5327C216.771 66.4254 215.961 64.4402 215.614 62.5037C215.268 60.5673 215.278 58.5674 214.844 56.6504C214.711 56.053 214.535 55.4661 214.317 54.8944C214.132 54.4067 213.537 53.6408 213.498 53.1482C213.41 52.0263 215.732 52.7921 216.614 52.9043C217.472 52.988 218.319 53.1513 219.146 53.3921C220.029 53.7255 220.893 54.1049 221.736 54.5286C225.258 56.0846 229.511 56.2748 232.34 58.8893C233.272 59.7478 234.057 60.8746 235.267 61.2648C235.822 61.3711 236.369 61.5129 236.906 61.6891C238.247 62.3184 238.457 64.0988 239.189 65.3865C239.419 65.7266 239.619 66.0855 239.789 66.4596C239.93 66.9007 239.996 67.3624 239.984 67.8254L240.086 71.2056C240.252 76.8687 240.418 82.5464 239.813 88.1754C239.618 90.0338 239.325 91.9459 239.876 93.7312C240.023 94.2189 240.228 94.6774 240.364 95.1701C240.485 95.7477 240.547 96.336 240.55 96.9261L240.628 99.1162C240.655 99.2865 240.616 99.4608 240.52 99.604C240.439 99.6702 240.343 99.7173 240.241 99.7417C240.139 99.7662 240.033 99.7675 239.93 99.7454C236.882 99.4723 233.799 97.7553 230.921 98.7943" fill="#464353"/>
<path d="M370.132 266.413C390.056 266.413 406.207 264.079 406.207 261.199C406.207 258.319 390.056 255.985 370.132 255.985C350.207 255.985 334.056 258.319 334.056 261.199C334.056 264.079 350.207 266.413 370.132 266.413Z" fill="#504F60"/>
<path d="M401.169 261.452C400.535 258.735 400.139 256.35 400.139 256.35C400.139 256.35 400.286 253.394 398.959 251.175V250.434V244.97C399.337 243.978 399.799 243.021 400.339 242.107C401.315 240.39 400.339 234.098 400.339 234.098C400.339 234.098 396.696 225.225 397.579 219.596C398.462 213.967 390.096 194.603 390.096 194.603C390.148 192.735 390.411 190.879 390.881 189.071C390.971 188.691 391.007 188.3 390.989 187.91C390.989 187.862 390.989 187.818 390.989 187.769C390.989 187.72 390.989 187.798 390.989 187.813C390.862 184.101 387.926 177.145 387.926 177.145L388.321 163.887C388.321 163.887 390.194 156.083 387.14 145.571C386.072 141.908 385.389 138.977 384.955 136.713C384.906 136.46 384.857 136.226 384.818 135.977C391.106 135.001 395.91 134.221 395.91 134.221C395.91 134.221 392.262 118.958 389.799 116.285C387.335 113.612 385.365 105.218 385.365 105.218C385.365 105.218 384.082 94.4428 386.155 91.2917C388.228 88.1407 388.521 82.7069 388.521 82.7069C388.521 82.7069 393.247 79.2924 393.842 77.7462C394.437 76.1999 395.418 72.7855 395.418 70.9759C395.418 69.1662 394.828 67.5614 395.023 66.5859C395.218 65.6103 393.642 62.0057 394.432 60.2887C394.637 59.7613 394.743 59.2008 394.745 58.6351C394.747 58.6189 394.747 58.6026 394.745 58.5864C394.752 57.0838 394.613 55.5842 394.33 54.1086C392.963 52.954 391.367 52.1013 389.647 51.6063L389.545 51.1966L389.277 50.1234C389.127 50.0245 388.972 49.9333 388.813 49.8503V49.4601L388.769 47.9089L389.511 44.4262C390.974 38.368 382.882 37.4657 382.882 37.4657C382.391 36.5364 381.575 35.8208 380.589 35.456C378.965 34.8853 380.321 44.5677 381.077 45.2115C381.648 45.6993 383.414 48.7138 384.267 50.2064L384.404 50.4503C384.27 50.5704 384.146 50.7009 384.033 50.8405L384.34 52.9428L384.389 53.2647C383.853 53.9307 383.417 54.6719 383.097 55.4646C383.097 55.4646 384.56 57.084 384.282 58.879C384.004 60.674 384.736 62.9519 384.77 63.0739C384.682 62.9715 383.643 61.8496 382.604 62.1227C381.565 62.3959 378.663 63.269 378.663 63.269C378.663 63.269 376.497 63.6495 376.712 64.1275C376.926 64.6055 375.248 66.7029 375.248 66.7029L369.424 61.1813C369.366 61.0155 369.302 60.8496 369.254 60.6935C369.016 59.8974 368.853 59.081 368.766 58.2547C369.4 58.1038 370.023 57.9066 370.629 57.6645C371.241 57.4543 371.793 57.0996 372.239 56.6304C372.829 55.9329 372.941 54.9866 373.18 54.1183C373.639 52.4209 374.643 50.9136 375.341 49.2991C376.522 46.5709 376.903 43.5629 376.438 40.6264C376.349 39.7215 376.043 38.8515 375.546 38.09C374.595 36.7828 372.868 36.2511 371.614 35.2073C370.361 34.1634 369.551 32.5684 368.088 31.7928C366.766 31.0855 365.161 31.1685 363.668 31.4124C360.753 31.8931 357.953 32.912 355.41 34.4171C354.562 34.9048 353.625 35.5048 352.65 35.3243C351.811 35.1731 351.186 34.5049 350.659 33.861C350.665 33.8343 350.674 33.8082 350.684 33.7829C350.66 33.7592 350.639 33.733 350.62 33.7049C350.003 35.0748 349.694 36.5632 349.713 38.0656C349.713 38.2998 349.713 38.5534 349.742 38.7631V39.007C349.742 39.0753 349.742 39.1436 349.742 39.207C349.742 39.311 349.727 39.4144 349.699 39.5143C349.576 39.8127 349.389 40.0807 349.152 40.2996C348.973 40.503 348.81 40.7199 348.664 40.9484C348.664 40.8703 348.713 40.7923 348.743 40.7094C348.37 41.2525 348.161 41.8903 348.138 42.5483C348.11 43.0272 348.267 43.4985 348.577 43.8653C348.869 44.1489 349.187 44.4037 349.528 44.6262C349.412 45.2701 349.353 45.923 349.352 46.5773C349.363 48.517 349.875 50.4209 350.837 52.1052C351.799 53.7894 353.179 55.1968 354.845 56.1914C354.913 56.3523 354.976 56.5182 355.04 56.6791C355.786 58.6303 356.347 60.9228 356.098 63.0202C356.098 63.1714 356.054 63.3275 356.03 63.4787C356.005 63.63 355.884 63.6397 355.82 63.7226C355.82 63.7226 346.196 63.8202 343.933 61.7715C341.67 59.7229 338.216 66.781 338.216 66.781C338.216 66.781 334.768 67.4492 334.075 66.781C333.382 66.1127 329.349 66.6883 329.349 66.6883C327.696 65.2185 325.545 64.4336 323.334 64.4933C321.995 63.4753 320.516 62.654 318.944 62.0544L318.837 62.0154C318.143 61.7625 317.401 61.6691 316.666 61.7423C316.666 61.7423 311.935 57.8401 310.555 55.7329C309.174 53.6257 302.604 45.8456 302.575 45.8115V45.4359L302.501 44.3043C302.306 44.3349 302.109 44.3512 301.911 44.3531C301.877 44.2409 301.828 44.1092 301.779 43.958C301.401 42.8541 300.934 41.7825 300.384 40.7533C300.384 40.7533 300.384 39.3241 300.799 38.9631C301.214 38.6022 300.628 33.3586 300.628 33.3586C300.628 33.3586 296.365 23.3933 292.546 30.8319C292.546 30.8319 285.327 35.6462 291.385 41.2557C291.385 41.2557 293.824 42.4263 294.146 43.3531C294.37 43.9531 295.19 45.6359 295.741 46.7675L295.99 47.2553L295.921 47.3139L296.009 48.2504L296.048 48.6113C294.907 49.2601 294.131 49.9039 294.321 50.3868C294.657 51.2132 294.888 52.0784 295.009 52.9623C295.009 52.9623 303.389 63.4592 304.472 67.9419C304.472 67.9419 326.944 81.2972 334.334 82.2484L333.026 88.9065C332.836 90.7132 332.738 92.5285 332.734 94.3452C332.831 95.7744 331.846 102.262 331.846 102.262C331.846 102.262 330.563 111.803 329.48 113.139C328.397 114.476 328.592 120.197 328.592 120.197C328.337 122.936 327.847 125.649 327.129 128.304C326.046 131.928 326.832 136.416 326.832 136.416C326.832 136.416 323.09 145.001 332.056 139.182C332.056 139.182 336.446 138.908 341.528 138.733C341.528 138.899 341.528 139.069 341.528 139.221C341.528 139.874 341.528 140.581 341.494 141.323C341.426 146.24 341.397 153.03 341.621 158.141C342.016 167.204 344.777 185.14 344.777 185.14V194.169C344.599 195.015 344.51 195.879 344.513 196.744C344.455 199.921 345.301 203.049 346.952 205.763L347.645 211.772C347.645 211.772 349.264 215.733 349.294 218.113C349.287 218.305 349.265 218.496 349.225 218.684C349.162 218.987 349.136 219.297 349.147 219.606C349.055 222.338 350.698 228.874 350.698 228.874C350.698 228.874 350.796 235.454 351.781 235.839C352.625 236.166 350.655 239.629 350.069 240.624C350.054 240.563 350.042 240.501 350.035 240.439L349.913 240.634C349.71 241.167 349.606 241.732 349.606 242.302C349.55 242.752 349.624 243.207 349.817 243.617C350.01 244.026 350.316 244.372 350.698 244.614C352.572 245.761 353.576 246.712 351.986 247.092C351.401 247.183 350.822 247.305 350.25 247.458C350.25 247.385 350.191 247.307 350.167 247.239C349.943 247.326 349.755 247.489 349.637 247.698C349.519 247.908 349.477 248.152 349.518 248.39C349.533 249.164 349.732 249.923 350.099 250.604C351.674 254.136 352.767 255.482 352.767 255.482L353.523 255.399C353.411 255.688 353.264 255.962 353.084 256.214C352.796 256.623 352.415 256.957 351.972 257.189C351.559 257.436 351.098 257.594 350.62 257.653C350.086 257.67 349.562 257.8 349.081 258.033C348.6 258.267 348.174 258.599 347.83 259.009C346.855 260.282 346.23 262.013 348.172 263.535L355.22 265.974C355.22 265.974 367.346 267.55 366.702 264.828C366.059 262.106 365.668 259.726 365.668 259.726C365.72 258.064 365.386 256.413 364.693 254.902C364.566 254.655 364.422 254.417 364.264 254.189L364.693 254.145C364.693 254.145 365.581 248.131 366.761 246.99C367.034 246.726 367.098 246.502 367.034 246.365C367.156 246.039 366.844 245.848 366.449 245.736L366.361 245.975C365.975 245.891 365.581 245.847 365.185 245.844C365.185 245.844 364.79 242.697 366.073 241.551C366.177 241.42 366.252 241.27 366.295 241.109C366.338 240.948 366.347 240.779 366.322 240.615C366.332 240.183 366.286 239.752 366.185 239.332C366.173 239.359 366.158 239.385 366.141 239.41C365.498 236.551 363.312 232.01 363.312 232.01C363.312 232.01 363.215 229.152 364.005 228.006C364.795 226.859 363.903 212.455 363.903 212.455C363.903 212.455 364.2 205.495 363.312 202.251C362.425 199.007 364.395 195.188 364.395 195.188C364.395 195.188 364.395 195.115 364.395 194.983V194.934L364.283 193.837C364.28 193.86 364.28 193.882 364.283 193.905C364.083 192.061 363.707 188.72 363.429 187.179C363.034 184.984 363.532 174.497 363.532 174.497L365.303 170.009L368.458 177.74L371.809 188.042C371.809 188.042 373.468 190.218 373.507 192.432C373.507 192.539 373.507 192.647 373.507 192.754C373.48 192.982 373.467 193.212 373.468 193.442C373.408 194.743 373.766 196.03 374.487 197.115C374.487 197.115 375.375 201.992 376.756 203.217C378.136 204.441 378.136 206.841 378.136 206.841C378.136 206.841 379.809 213.904 380.575 215.133C381.238 216.177 381.272 219.035 381.267 219.928C381.267 220.089 381.267 220.182 381.267 220.182C381.267 220.182 381.502 222.708 381.492 224.825C381.492 225.089 381.492 225.342 381.492 225.581C381.494 225.564 381.494 225.546 381.492 225.528C381.491 226.106 381.423 226.682 381.287 227.245L381.258 227.342C381.258 227.22 381.258 227.103 381.292 226.986C380.949 228.424 380.785 229.898 380.804 231.376C380.76 233.913 381.145 236.917 382.682 238.693C385.345 241.746 387.018 241.366 387.018 241.366C387.018 241.366 385.74 245.18 384.16 245.946C384.1 245.974 384.044 246.01 383.994 246.053C383.994 245.975 383.965 245.902 383.955 245.829C383.779 246.019 383.644 246.244 383.56 246.489C383.476 246.735 383.445 246.995 383.467 247.253C383.355 248.931 384.414 251.643 385.418 252.907C385.792 253.272 386.249 253.54 386.75 253.687C386.671 253.743 386.588 253.794 386.501 253.838C386.326 253.935 386.145 254.021 385.96 254.097C385.703 254.206 385.432 254.276 385.155 254.306C384.62 254.321 384.095 254.449 383.613 254.683C383.132 254.917 382.707 255.251 382.365 255.662C381.389 256.931 380.765 258.662 382.706 260.184L389.755 262.623C389.755 262.623 401.803 264.169 401.169 261.452Z" fill="url(#paint0_linear)"/>
<path d="M354.874 265.96L348.046 263.521C346.163 261.999 346.763 260.268 347.714 258.995C348.041 258.588 348.452 258.257 348.918 258.023C349.384 257.79 349.895 257.658 350.416 257.638C350.879 257.58 351.323 257.421 351.719 257.175C352.151 256.94 352.523 256.606 352.801 256.2C353.3 255.409 353.568 254.495 353.577 253.561C353.577 253.561 361.069 251.366 363.118 253.561C363.484 253.958 363.789 254.407 364.025 254.892C364.706 256.408 365.039 258.056 365.001 259.716C365.001 259.716 365.381 262.097 366.001 264.819C366.62 267.54 354.874 265.96 354.874 265.96Z" fill="#2D293D"/>
<path d="M388.258 262.594L381.429 260.155C379.546 258.634 380.146 256.902 381.097 255.634C381.422 255.226 381.832 254.894 382.297 254.66C382.763 254.426 383.274 254.295 383.795 254.278C384.065 254.25 384.328 254.179 384.575 254.068C384.756 253.992 384.932 253.905 385.102 253.809C387.009 252.761 386.961 250.185 386.961 250.185C386.961 250.185 394.448 247.99 396.501 250.185C396.776 250.483 397.017 250.81 397.218 251.161C398.501 253.38 398.36 256.341 398.36 256.341C398.36 256.341 398.74 258.726 399.335 261.443C399.931 264.16 388.258 262.594 388.258 262.594Z" fill="#2D293D"/>
<path opacity="0.1" d="M363.123 253.556C363.488 253.953 363.794 254.402 364.03 254.887L352.811 256.19C353.309 255.399 353.578 254.485 353.587 253.551C353.587 253.551 361.074 251.361 363.123 253.556Z" fill="black"/>
<path opacity="0.1" d="M397.228 251.17V253.272C395.482 256.145 387.038 255.516 384.585 254.077C384.765 254.001 384.941 253.915 385.112 253.819C387.019 252.77 386.97 250.195 386.97 250.195C386.97 250.195 394.457 248 396.511 250.195C396.786 250.492 397.026 250.819 397.228 251.17Z" fill="black"/>
<path d="M398.559 242.108C398.037 243.024 397.592 243.981 397.227 244.971V252.507C395.315 255.653 385.399 254.604 384.058 252.887C382.716 251.171 381.316 246.702 382.823 245.927C384.331 245.151 385.589 241.347 385.589 241.347C385.589 241.347 383.965 241.727 381.389 238.674C378.814 235.62 379.58 228.85 380.058 227.23C380.536 225.611 380.058 220.172 380.058 220.172C380.058 220.172 380.155 216.353 379.394 215.114C378.633 213.875 377.009 206.822 377.009 206.822C377.009 206.822 377.009 204.437 375.673 203.198C374.336 201.959 373.478 197.091 373.478 197.091C372.696 195.874 372.36 194.425 372.527 192.989C372.809 190.603 370.902 188.028 370.902 188.028L367.659 177.721L364.605 169.995L362.888 174.477C362.888 174.477 362.4 184.97 362.795 187.16C363.19 189.35 363.771 195.174 363.771 195.174C363.771 195.174 361.864 198.988 362.722 202.232C363.581 205.476 363.269 212.446 363.269 212.446C363.269 212.446 364.127 226.845 363.361 227.991C362.595 229.138 362.693 232.001 362.693 232.001C362.693 232.001 366.595 240.391 365.366 241.537C364.137 242.683 364.507 245.829 364.507 245.829C364.507 245.829 367.176 245.829 366.034 246.976C364.893 248.122 364.029 254.131 364.029 254.131L352.494 255.482C352.494 255.482 351.44 254.151 349.913 250.605C348.386 247.059 350.196 247.459 351.733 247.073C353.269 246.688 352.298 245.742 350.484 244.595C348.669 243.449 349.723 240.874 349.723 240.874C349.723 240.874 352.489 236.201 351.533 235.82C350.577 235.44 350.484 228.855 350.484 228.855C350.484 228.855 348.577 221.05 349.055 218.933C349.533 216.816 347.528 211.783 347.528 211.783L346.86 205.773C344.819 202.363 344.074 198.332 344.762 194.418V185.15C344.762 185.15 342.089 167.219 341.709 158.157C341.465 152.352 341.533 144.43 341.611 139.489C341.66 136.719 341.709 134.88 341.709 134.88L382.916 130.587C382.916 130.587 382.877 132.49 383.662 136.709C384.087 138.972 384.745 141.904 385.779 145.567C388.735 156.059 386.926 163.878 386.926 163.878L386.54 177.141C386.54 177.141 390.164 186.009 389.404 189.062C388.944 190.875 388.685 192.733 388.633 194.603C388.633 194.603 396.74 213.968 395.881 219.597C395.023 225.226 398.549 234.098 398.549 234.098C398.549 234.098 399.515 240.391 398.559 242.108Z" fill="#464353"/>
<path opacity="0.05" d="M375 192.413L387.545 190.74C387.545 190.74 380.438 197.993 375 192.413Z" fill="black"/>
<path opacity="0.1" d="M385.732 178.482C385.732 178.482 386.161 182.921 383.444 184.589C383.444 184.589 388.307 183.828 385.732 178.482Z" fill="black"/>
<path opacity="0.1" d="M384.961 164.366C384.961 164.366 374.474 172.999 370.659 172.282C366.845 171.565 384.961 164.366 384.961 164.366Z" fill="black"/>
<path opacity="0.1" d="M359.449 196.461C359.449 196.461 351.484 198.271 351.245 201.471C351.006 204.67 359.449 196.461 359.449 196.461Z" fill="black"/>
<path opacity="0.05" d="M361.201 236.245C361.201 236.245 349.948 238.342 353.143 239.771C356.338 241.2 361.586 242.347 361.586 242.347C361.586 242.347 365.22 242.537 361.201 236.245Z" fill="black"/>
<g opacity="0.05">
<path opacity="0.05" d="M350.87 242.044C350.587 241.868 350.347 241.629 350.169 241.347C349.991 241.065 349.878 240.747 349.84 240.415L349.723 240.615C349.723 240.615 348.675 243.191 350.489 244.332C350.694 244.464 350.894 244.595 351.074 244.722C351.411 244.659 351.772 244.61 352.118 244.522C353.655 244.142 352.684 243.191 350.87 242.044Z" fill="black"/>
<path opacity="0.05" d="M365.366 241.279C365.678 240.996 365.669 240.264 365.478 239.327C364.991 240.064 364.849 241.215 364.839 242.088C364.958 241.785 365.137 241.51 365.366 241.279Z" fill="black"/>
<path opacity="0.05" d="M363.635 193.823C363.221 194.951 362.965 196.132 362.875 197.33C363.092 196.502 363.384 195.696 363.748 194.921L363.635 193.823Z" fill="black"/>
<path opacity="0.05" d="M389.408 188.818C389.483 188.475 389.518 188.125 389.511 187.774C389.369 188.487 389.272 189.145 389.198 189.725C389.262 189.428 389.33 189.145 389.408 188.818Z" fill="black"/>
<path opacity="0.05" d="M363.366 227.738C363.523 227.504 363.61 226.714 363.649 225.616C363.296 226.465 363.109 227.374 363.098 228.294C363.165 228.098 363.255 227.912 363.366 227.738Z" fill="black"/>
<path opacity="0.05" d="M365.708 245.727C365.116 247.64 364.677 249.597 364.396 251.58L352.86 252.912C352.86 252.912 351.806 251.58 350.279 248.034C350.156 247.76 350.047 247.48 349.953 247.195C349.26 247.512 348.977 248.229 349.894 250.322C351.421 253.853 352.479 255.199 352.479 255.199L364.015 253.863C364.015 253.863 364.874 247.854 366.015 246.707C366.6 246.156 366.239 245.868 365.708 245.727Z" fill="black"/>
<path opacity="0.05" d="M350.489 228.596C350.489 228.596 350.582 235.176 351.538 235.557C352.026 234.469 352.343 233.435 351.913 233.264C350.938 232.884 350.865 226.299 350.865 226.299C350.865 226.299 348.957 218.494 349.435 216.377C349.914 214.26 347.909 209.227 347.909 209.227L347.24 203.217C345.199 199.807 344.455 195.776 345.143 191.862V182.594C345.143 182.594 342.47 164.663 342.09 155.6C341.846 149.796 341.914 141.874 341.992 136.933C341.992 136.041 342.021 135.25 342.036 134.582L341.709 134.616C341.709 134.616 341.655 136.45 341.612 139.226C341.533 144.167 341.46 152.088 341.709 157.888C342.09 166.951 344.758 184.887 344.758 184.887V194.154C344.073 198.068 344.819 202.096 346.86 205.505L347.523 211.514C347.523 211.514 349.528 216.568 349.05 218.67C348.572 220.772 350.489 228.596 350.489 228.596Z" fill="black"/>
<path opacity="0.05" d="M384.448 250.342C383.511 248.985 382.886 247.437 382.619 245.81C381.444 246.873 382.795 251 384.082 252.639C385.414 254.356 395.335 255.405 397.252 252.254V250.439C394.652 252.99 385.707 251.966 384.448 250.342Z" fill="black"/>
<path opacity="0.05" d="M398.944 239.561C398.421 240.478 397.974 241.435 397.608 242.425V243.776C397.827 243.288 398.135 242.634 398.583 241.864C398.885 241.113 399.028 240.307 399.003 239.498C399.003 239.498 398.959 239.542 398.944 239.561Z" fill="black"/>
<path opacity="0.05" d="M385.034 241.069C385.397 240.334 385.711 239.576 385.975 238.801C385.975 238.801 384.351 239.181 381.776 236.128C379.903 233.908 379.795 229.713 380.064 226.972C379.576 228.596 378.82 235.367 381.395 238.42C383.078 240.415 384.351 240.942 385.034 241.069Z" fill="black"/>
<path opacity="0.05" d="M380.058 219.914C380.226 221.793 380.29 223.681 380.248 225.567C380.296 225.269 380.361 224.975 380.443 224.684C380.931 223.06 380.443 217.626 380.443 217.626C380.443 217.626 380.541 213.807 379.775 212.568C379.009 211.329 377.414 204.266 377.414 204.266C377.414 204.266 377.414 201.881 376.077 200.642C374.741 199.403 373.883 194.535 373.883 194.535C373.094 193.321 372.749 191.872 372.907 190.433C373.195 188.048 371.288 185.472 371.288 185.472L368.044 175.17L364.99 167.444L363.268 171.931C363.268 171.931 363.268 172.497 363.21 173.395L364.605 169.751L367.658 177.463L370.902 187.765C370.902 187.765 372.809 190.34 372.522 192.725C372.364 194.164 372.709 195.614 373.497 196.828C373.497 196.828 374.356 201.705 375.692 202.935C377.029 204.164 377.024 206.559 377.024 206.559C377.024 206.559 378.648 213.617 379.409 214.851C380.17 216.085 380.058 219.914 380.058 219.914Z" fill="black"/>
</g>
<path d="M388.067 44.4124L387.35 47.8951L387.394 49.4462L387.423 50.5876L383.443 50.9973L382.999 50.173C382.175 48.6804 380.463 45.6464 379.912 45.1782C379.175 44.5636 377.863 34.8763 379.424 35.4519C380.385 35.823 381.174 36.5373 381.638 37.4567C381.638 37.4567 389.477 38.3542 388.067 44.4124Z" fill="#FFCDD3"/>
<path opacity="0.1" d="M387.424 50.5872L383.443 50.997L383 50.1726C383.535 49.5632 384.265 49.1581 385.065 49.0265C385.866 48.8949 386.687 49.0448 387.389 49.4507L387.424 50.5872Z" fill="black"/>
<path d="M388.428 52.4745L383.18 53.6891L383.068 52.9086L382.77 50.8063C382.77 50.8063 384.848 48.0357 387.853 50.1137L388.116 51.1819L388.428 52.4745Z" fill="#1669F0"/>
<path d="M303.409 44.7923L297.804 47.797L297.317 46.7434C296.785 45.6264 295.99 43.9435 295.77 43.3289C295.439 42.4022 293.102 41.2315 293.102 41.2315C287.249 35.627 294.224 30.8077 294.224 30.8077C297.922 23.3692 302.029 33.3344 302.029 33.3344C302.029 33.3344 302.604 38.5878 302.199 38.939C301.794 39.2902 301.794 40.7291 301.794 40.7291C302.329 41.76 302.78 42.8316 303.146 43.9338C303.316 44.4655 303.409 44.7923 303.409 44.7923Z" fill="#FFCDD3"/>
<path opacity="0.1" d="M303.409 44.7927L297.804 47.7974L297.316 46.7438C298.107 46.0804 300.911 43.8171 301.833 43.9098C302.273 43.9647 302.718 43.9762 303.16 43.9439C303.316 44.4658 303.409 44.7927 303.409 44.7927Z" fill="black"/>
<path d="M303.98 46.4852L297.683 49.5874L297.556 48.2363L297.468 47.2998C297.468 47.2998 301.117 44.1731 302.195 44.2951C302.74 44.3741 303.293 44.3741 303.838 44.2951L303.912 45.4267L303.98 46.4852Z" fill="#1669F0"/>
<path d="M372.805 67.5472C372.805 67.5472 345.353 70.6446 350.485 68.9764C354.055 67.8106 355.475 65.562 355.772 63.0255C356.016 60.9135 355.47 58.6356 354.753 56.6845C354.107 54.9536 353.29 53.2917 352.314 51.7238C352.314 51.7238 373.288 40.183 369.098 50.6751C368.452 52.262 368.051 53.938 367.908 55.6455C367.782 57.3424 367.965 59.0481 368.449 60.6793C369.241 63.3263 370.748 65.7031 372.805 67.5472Z" fill="#FFCDD3"/>
<path opacity="0.1" d="M369.083 50.6603C368.437 52.2473 368.036 53.9232 367.893 55.6308C365.918 57.2941 363.752 57.1819 360.967 57.1819C358.83 57.1819 356.46 57.6989 354.752 56.6697C354.107 54.9388 353.29 53.277 352.313 51.709C352.313 51.709 373.283 40.1683 369.083 50.6603Z" fill="black"/>
<path d="M360.596 57.9138C366.865 57.9138 371.947 52.832 371.947 46.5632C371.947 40.2945 366.865 35.2127 360.596 35.2127C354.327 35.2127 349.246 40.2945 349.246 46.5632C349.246 52.832 354.327 57.9138 360.596 57.9138Z" fill="#FFCDD3"/>
<path opacity="0.1" d="M372.805 67.5471C372.805 67.5471 345.353 70.6445 350.485 68.9763C354.055 67.8105 355.475 65.5619 355.772 63.0255C357.138 61.5621 359.884 60.4744 361.625 59.9086C363.235 59.3672 364.974 59.3382 366.601 59.8256C367.241 60.0184 367.85 60.3009 368.41 60.6646C369.21 63.3213 370.732 65.7039 372.805 67.5471Z" fill="black"/>
<path opacity="0.1" d="M388.428 52.4748L383.18 53.6894L383.068 52.9089C383.63 52.137 384.416 51.5571 385.319 51.2481C386.222 50.9391 387.199 50.9161 388.116 51.1822L388.428 52.4748Z" fill="black"/>
<path opacity="0.1" d="M303.979 46.4851L297.682 49.5873L297.555 48.2362C299.595 47.1395 301.715 46.1987 303.896 45.4217L303.979 46.4851Z" fill="black"/>
<path opacity="0.1" d="M383.663 136.719C373.025 138.416 357.904 140.582 355.504 139.85C353.509 139.245 347.148 139.309 341.612 139.499C341.661 136.729 341.71 134.89 341.71 134.89L382.917 130.597C382.917 130.597 382.878 132.5 383.663 136.719Z" fill="black"/>
<path d="M394.266 134.221C394.266 134.221 359.259 140.231 355.503 139.099C351.747 137.967 332.455 139.192 332.455 139.192C323.773 145.011 327.397 136.426 327.397 136.426C327.397 136.426 326.636 131.943 327.685 128.319C328.389 125.658 328.871 122.943 329.124 120.203C329.124 120.203 328.934 114.476 329.982 113.14C331.031 111.803 332.275 102.267 332.275 102.267C332.275 102.267 333.226 95.7797 333.133 94.3505C333.041 92.9213 333.416 88.9118 333.416 88.9118L334.66 82.2342C327.505 81.283 305.755 67.9277 305.755 67.9277C304.706 63.445 296.599 52.953 296.599 52.953C296.481 52.0707 296.257 51.2059 295.931 50.3775C295.36 48.8508 303.945 45.7973 303.945 45.7973C303.945 45.7973 310.335 53.6017 311.671 55.7187C313.008 57.8356 317.583 61.7281 317.583 61.7281C318.294 61.655 319.012 61.7485 319.681 62.0012L319.793 62.0354C321.326 62.6373 322.764 63.4589 324.061 64.4743C326.212 64.4232 328.299 65.2103 329.88 66.6692C329.88 66.6692 333.782 66.0937 334.46 66.7619C335.138 67.4302 338.465 66.7619 338.465 66.7619C338.465 66.7619 341.801 59.7038 343.996 61.7525C346.191 63.8011 355.503 63.7036 355.503 63.7036C356.742 62.0549 359.761 60.8745 361.649 60.2891C363.259 59.75 364.997 59.721 366.624 60.2062C367.326 60.4157 367.986 60.7458 368.575 61.1818L374.238 66.7131C374.238 66.7131 375.858 64.6108 375.668 64.1377C375.477 63.6645 377.575 63.2792 377.575 63.2792C377.575 63.2792 380.34 62.4207 381.389 62.1329C382.438 61.8451 383.399 62.9817 383.487 63.0841C383.452 62.9621 382.735 60.6452 382.999 58.8892C383.262 57.1332 381.853 55.4748 381.853 55.4748C385.189 47.2704 392.725 54.1383 392.725 54.1383C392.725 54.1383 393.584 58.6209 392.823 60.3379C392.062 62.0549 393.584 65.6791 393.393 66.6351C393.203 67.5911 393.779 69.2106 393.779 71.0251C393.779 72.8396 392.803 76.2687 392.252 77.7954C391.701 79.3222 387.101 82.7561 387.101 82.7561C387.101 82.7561 386.813 88.1948 384.808 91.3409C382.804 94.4871 384.062 105.247 384.062 105.247C384.062 105.247 385.969 113.642 388.355 116.315C390.74 118.988 394.266 134.221 394.266 134.221Z" fill="#3F3D56"/>
<path opacity="0.1" d="M343.236 71.4544C343.236 71.4544 342.187 68.3083 341.231 68.04C340.282 67.6909 339.358 67.2769 338.465 66.801L339.08 65.6255C339.08 65.6255 342.66 66.6011 343.236 67.6595C343.811 68.718 343.236 71.4544 343.236 71.4544Z" fill="black"/>
<path opacity="0.1" d="M324.061 64.494C323.871 65.4695 315.379 66.3036 315.379 66.3036L319.671 62.0014L319.779 62.0405C321.318 62.6457 322.761 63.4722 324.061 64.494Z" fill="black"/>
<path d="M299.496 52.1627C299.917 52.1627 300.257 51.822 300.257 51.4018C300.257 50.9815 299.917 50.6409 299.496 50.6409C299.076 50.6409 298.735 50.9815 298.735 51.4018C298.735 51.822 299.076 52.1627 299.496 52.1627Z" fill="#575988"/>
<path d="M300.472 53.6894C300.892 53.6894 301.233 53.3488 301.233 52.9285C301.233 52.5083 300.892 52.1676 300.472 52.1676C300.052 52.1676 299.711 52.5083 299.711 52.9285C299.711 53.3488 300.052 53.6894 300.472 53.6894Z" fill="#575988"/>
<path d="M301.428 55.0991C301.848 55.0991 302.189 54.7584 302.189 54.3381C302.189 53.9179 301.848 53.5772 301.428 53.5772C301.008 53.5772 300.667 53.9179 300.667 54.3381C300.667 54.7584 301.008 55.0991 301.428 55.0991Z" fill="#575988"/>
<path d="M302.429 56.6208C302.849 56.6208 303.19 56.2801 303.19 55.8599C303.19 55.4396 302.849 55.099 302.429 55.099C302.008 55.099 301.668 55.4396 301.668 55.8599C301.668 56.2801 302.008 56.6208 302.429 56.6208Z" fill="#575988"/>
<path d="M392.345 56.3965C392.687 56.3965 392.964 56.1192 392.964 55.777C392.964 55.4349 392.687 55.1576 392.345 55.1576C392.002 55.1576 391.725 55.4349 391.725 55.777C391.725 56.1192 392.002 56.3965 392.345 56.3965Z" fill="#575988"/>
<path d="M392.443 57.8061C392.786 57.8061 393.063 57.5287 393.063 57.1866C393.063 56.8445 392.786 56.5671 392.443 56.5671C392.101 56.5671 391.824 56.8445 391.824 57.1866C391.824 57.5287 392.101 57.8061 392.443 57.8061Z" fill="#575988"/>
<path d="M392.526 59.2107C392.868 59.2107 393.145 58.9333 393.145 58.5912C393.145 58.2491 392.868 57.9717 392.526 57.9717C392.184 57.9717 391.906 58.2491 391.906 58.5912C391.906 58.9333 392.184 59.2107 392.526 59.2107Z" fill="#575988"/>
<path opacity="0.1" d="M343.271 97.3066C343.178 97.1944 364.684 124.349 381.376 108.657C381.39 108.662 355.016 112.237 343.271 97.3066Z" fill="black"/>
<path opacity="0.1" d="M330.93 111.422C330.93 111.422 343.798 111.774 345.144 115.476V119.329C344.778 119.533 344.365 119.639 343.946 119.639C343.527 119.639 343.115 119.533 342.749 119.329C341.451 118.627 333.671 114.676 330.93 116.578V111.422Z" fill="black"/>
<path d="M331.169 111.422C331.169 111.422 343.475 111.759 344.763 115.29V118.959C344.412 119.153 344.018 119.255 343.617 119.255C343.216 119.255 342.821 119.153 342.47 118.959C341.232 118.295 333.793 114.525 331.169 116.339V111.422Z" fill="#3F3D56"/>
<path opacity="0.1" d="M337.953 83.483C339.268 86.5259 340.943 89.4 342.943 92.0434C345.118 94.9653 347.754 97.5138 350.748 99.5893C350.748 99.5893 338.168 85.2487 337.953 83.483Z" fill="black"/>
<path opacity="0.1" d="M333.744 68.5328C333.744 68.5328 335.89 77.8005 341.422 80.9467L333.744 68.5328Z" fill="black"/>
<path opacity="0.1" d="M330.451 69.4689C330.397 69.2982 328.544 76.7856 337.582 80.9463C337.582 80.9463 333.743 79.644 330.451 69.4689Z" fill="black"/>
<path opacity="0.1" d="M386.638 63.2544C386.497 63.2544 391.096 66.1811 392.35 67.5469C392.35 67.5469 389.355 63.0593 386.638 63.2544Z" fill="black"/>
<path d="M357.528 56.8502C357.529 57.0978 357.583 57.3424 357.684 57.5685C357.785 57.7946 357.931 57.9972 358.115 58.1636C358.298 58.33 358.514 58.4566 358.749 58.5353C358.984 58.614 359.232 58.6431 359.479 58.6208C362.937 58.8355 366.542 58.9867 369.722 57.6453C370.319 57.4324 370.854 57.0775 371.283 56.6112C371.849 55.9137 371.961 54.9674 372.19 54.0992C372.639 52.4017 373.595 50.8945 374.283 49.2799C375.447 46.5522 375.836 43.5566 375.41 40.6219C375.32 39.7223 375.022 38.8558 374.541 38.0904C373.624 36.7782 371.951 36.2466 370.737 35.2027C369.522 34.1589 368.742 32.5638 367.322 31.7883C366.044 31.0761 364.479 31.1639 363.04 31.4078C360.209 31.8884 357.497 32.9067 355.05 34.4076C354.226 34.8954 353.323 35.4954 352.377 35.3149C351.548 35.1588 350.943 34.4613 350.426 33.8077C349.761 35.3686 349.481 37.0668 349.611 38.7586C349.647 39.0069 349.639 39.2595 349.587 39.5049C349.468 39.8016 349.286 40.0693 349.055 40.2902C348.201 41.2658 347.67 42.851 348.514 43.8559C348.88 44.29 349.445 44.529 349.801 44.9729C350.44 45.7679 350.226 46.924 350.211 47.9385C350.176 48.2928 350.266 48.6482 350.465 48.9434C350.649 49.1154 350.875 49.2368 351.12 49.2957C351.366 49.3547 351.622 49.3493 351.865 49.2799C352.348 49.1344 352.855 49.0863 353.357 49.1385C353.886 49.3104 354.343 49.6537 354.655 50.114C356.23 52.1676 356.855 54.4016 357.528 56.8502Z" fill="#2D293D"/>
<g opacity="0.1">
<path opacity="0.1" d="M371.689 55.748C371.26 56.2143 370.725 56.5692 370.128 56.7821C366.928 58.1138 363.328 57.9625 359.885 57.7577C359.515 57.7614 359.149 57.6796 358.817 57.5187C358.29 57.2114 358.09 56.5675 357.929 55.9822C357.256 53.5433 356.636 51.3044 355.036 49.2704C354.728 48.8012 354.271 48.4491 353.739 48.2704C353.237 48.2231 352.73 48.2711 352.246 48.4119C352.004 48.4818 351.748 48.4881 351.503 48.43C351.257 48.3719 351.031 48.2514 350.846 48.0802C350.647 47.7851 350.557 47.4297 350.593 47.0754C350.593 46.0511 350.822 44.9048 350.183 44.1097C349.827 43.6658 349.261 43.4268 348.895 42.9878C348.657 42.6642 348.51 42.2819 348.471 41.8816C348.433 41.4814 348.503 41.0781 348.676 40.7148C348.066 41.6903 347.807 42.9146 348.515 43.7536C348.881 44.1877 349.446 44.4268 349.802 44.8706C350.441 45.6706 350.227 46.8217 350.212 47.8363C350.175 48.1901 350.263 48.5457 350.461 48.8411C350.646 49.014 350.873 49.1358 351.119 49.1948C351.365 49.2538 351.622 49.2479 351.866 49.1777C352.349 49.0321 352.856 48.9841 353.358 49.0362C353.887 49.2082 354.344 49.5515 354.656 50.0118C356.251 52.0458 356.875 54.2798 357.548 56.7285C357.627 57.331 357.928 57.8824 358.392 58.2747C358.727 58.4359 359.094 58.5161 359.465 58.5088C362.924 58.7235 366.528 58.8796 369.709 57.5333C370.306 57.3218 370.842 56.9667 371.269 56.4992C371.485 56.2244 371.65 55.9141 371.757 55.5822C371.762 55.6456 371.728 55.6993 371.689 55.748Z" fill="black"/>
<path opacity="0.1" d="M349.612 39.2076C349.765 39.0412 349.883 38.8453 349.958 38.632C350.002 38.3852 350.002 38.1325 349.958 37.8857C349.863 36.495 350.044 35.0992 350.49 33.7786L350.427 33.7054C349.759 35.264 349.48 36.9612 349.612 38.6515C349.627 38.8366 349.627 39.0225 349.612 39.2076Z" fill="black"/>
</g>
<path opacity="0.1" d="M355.503 63.7278C355.503 63.7278 369.683 65.6106 370.956 63.479L355.503 63.7278Z" fill="black"/>
<path opacity="0.1" d="M383.068 57.8599C383.068 57.8599 390.95 57.8599 392.682 60.8256L383.068 57.8599Z" fill="black"/>
<path d="M427.168 321.332C424.83 323.423 421.792 324.558 418.656 324.513C417.856 324.513 416.749 324.664 416.744 325.464C416.763 325.698 416.844 325.924 416.978 326.117C417.968 327.767 419.531 328.995 421.368 329.566C423.075 330.083 424.9 329.995 426.68 329.903L431.875 329.634C432.85 329.581 433.826 329.532 434.801 329.41C435.777 329.288 436.84 329.088 437.86 328.922C440.365 328.566 442.898 328.449 445.425 328.571C446.098 328.595 446.888 328.571 447.288 328.083C447.688 327.595 447.484 326.664 447.332 325.932C447.02 324.425 447.332 322.845 447.045 321.332C446.557 318.679 444.259 316.645 441.742 315.684C439.401 314.796 435.255 313.777 433.04 315.26C430.704 316.816 429.275 319.415 427.168 321.332Z" fill="#3F3D56"/>
<path d="M432.328 232.43C432.786 234.61 434.898 236.279 434.957 238.503C435.01 240.288 433.737 241.786 432.82 243.312C431.956 244.894 431.227 246.545 430.64 248.249C428.913 252.685 426.771 256.947 424.24 260.98C423.021 262.931 421.655 265.014 421.933 267.282C422.127 268.342 422.502 269.362 423.04 270.296L426.699 277.564C427.5 279.015 428.127 280.556 428.567 282.154C428.884 283.534 428.913 284.964 429.099 286.368C429.674 290.827 431.767 295.314 430.528 299.636C430.42 300.007 430.04 300.455 429.742 300.197C430.952 302.455 431.923 304.728 431.83 307.289C431.781 308.63 431.372 310.03 431.864 311.279C432.074 311.801 432.44 312.289 432.435 312.85C432.435 313.22 432.264 313.567 432.225 313.928C432.123 314.957 433.069 315.815 434.05 316.142C435.03 316.469 436.098 316.445 437.088 316.742C438.991 317.313 440.352 318.952 441.966 320.088C443.623 321.229 445.575 321.865 447.585 321.917C447.872 321.948 448.161 321.89 448.415 321.752C448.558 321.626 448.673 321.472 448.752 321.299C448.831 321.125 448.872 320.937 448.873 320.747C448.961 319.836 448.824 318.917 448.474 318.072C448.123 317.226 447.57 316.48 446.863 315.898C446.554 315.704 446.297 315.436 446.117 315.118C446.026 314.836 446.003 314.537 446.049 314.245C446.343 310.247 446.271 306.23 445.834 302.245C445.637 300.983 445.573 299.702 445.644 298.426C445.746 297.363 446.068 296.309 445.951 295.251C445.834 294.192 445.293 293.226 444.976 292.207C444.41 290.392 444.566 288.441 444.488 286.544C444.39 283.247 443.634 280.008 442.883 276.788C442.586 275.525 442.259 274.203 441.366 273.267C440.605 272.472 439.376 271.711 439.664 270.652C439.823 270.262 440.061 269.908 440.361 269.613C440.715 269.17 440.974 268.659 441.123 268.113C441.272 267.566 441.309 266.994 441.23 266.433C441.55 266.515 441.89 266.483 442.19 266.342C442.489 266.202 442.731 265.961 442.873 265.662C448.814 262.858 453.604 257.248 455.741 251.029C455.867 250.567 456.061 250.127 456.316 249.722C456.868 248.951 457.824 248.619 458.672 248.195C461.336 246.854 463.175 244.342 464.862 241.883C465.838 240.459 466.813 238.986 467.252 237.308C467.483 236.223 467.593 235.115 467.579 234.006L467.73 228.274C467.764 227.897 467.727 227.517 467.623 227.152C467.478 226.812 467.268 226.504 467.004 226.245C465.381 224.529 463.251 223.38 460.926 222.967C459.365 222.689 457.77 222.743 456.19 222.611C453.126 222.357 450.102 221.406 447.039 221.636C442.225 221.992 437.937 225.328 435.669 229.591C434.874 231.094 434.035 232.401 432.328 232.43Z" fill="#464353"/>
<path d="M405.598 195.164C405.663 196.049 405.544 196.937 405.247 197.773C404.872 198.573 403.93 199.198 403.106 198.871C403.355 198.31 402.696 197.671 402.081 197.739C401.779 197.809 401.498 197.951 401.263 198.153C401.028 198.356 400.845 198.612 400.73 198.9C400.323 199.719 400.186 200.647 400.34 201.549C400.535 202.671 401.184 203.749 401.013 204.876C400.877 205.812 400.189 206.744 400.555 207.612C400.792 208.009 401.09 208.366 401.438 208.67C401.92 209.264 402.155 210.02 402.096 210.782C402.037 211.545 401.688 212.255 401.121 212.768L410.349 212.953C410.013 214.494 410.705 216.07 411.496 217.441C413.709 221.209 416.765 224.413 420.424 226.802C424.084 229.191 428.247 230.7 432.587 231.211C432.352 231.348 432.151 231.535 431.998 231.759C431.844 231.984 431.743 232.239 431.7 232.508C431.658 232.776 431.675 233.051 431.752 233.311C431.829 233.572 431.962 233.812 432.143 234.015C432.894 234.762 434.167 234.669 435.109 234.186C436.05 233.703 436.787 232.903 437.645 232.284C439.161 231.21 441.01 230.712 442.859 230.879C444.016 230.991 445.137 231.367 446.298 231.425C449.713 231.606 452.639 229.147 455.927 228.142C458.322 227.406 461.039 227.406 463.049 225.908C463.917 225.265 464.629 224.206 464.375 223.162C464.165 222.562 463.833 222.013 463.4 221.548C462.244 220.05 461.561 218.25 460.732 216.548C459.089 213.178 456.827 210.146 454.064 207.612C451.978 205.789 449.768 204.113 447.449 202.598C446.889 202.184 446.291 201.823 445.664 201.52C444.855 201.164 443.957 200.993 443.225 200.544C442.142 199.861 441.518 198.656 440.684 197.686C438.855 195.549 436.045 194.569 433.792 192.891C432.28 191.764 430.943 190.281 429.138 189.74C428.26 189.472 427.329 189.452 426.451 189.189C424.456 188.584 423.002 186.813 421.046 186.096C419.5 185.53 417.793 185.677 416.168 185.477C414.337 185.251 412.588 184.585 411.071 183.535C410.582 183.137 410.034 182.818 409.447 182.589C406.974 181.838 406.774 186.442 406.52 188.037C406.193 190.408 405.598 192.764 405.598 195.164Z" fill="white"/>
<path d="M408.008 210.607C408.423 215.104 405.028 219.46 406.018 223.865C406.228 224.801 406.633 225.694 406.779 226.645C407.194 229.255 405.633 231.728 404.145 233.913L391.365 252.668C390.852 253.491 390.24 254.248 389.541 254.921C387.102 257.092 383.434 256.873 380.225 257.516C377.97 257.98 375.841 258.921 373.981 260.277C373.897 260.342 373.842 260.437 373.828 260.542C373.813 260.647 373.84 260.753 373.903 260.838C374.433 261.56 375.135 262.137 375.945 262.518C376.755 262.899 377.648 263.071 378.542 263.019C378.878 263.458 378.542 264.111 378.078 264.428C377.395 264.916 376.449 265.028 376.313 266.194C376.266 266.599 376.348 267.008 376.547 267.365C377.063 268.151 377.864 268.706 378.781 268.916C383.205 270.272 387.985 267.891 391.297 264.657C394.609 261.424 396.985 257.341 400.233 254.053C402.033 252.229 404.077 250.673 405.93 248.907C409.628 245.381 412.506 241.103 415.276 236.815C416.11 235.523 416.954 234.196 417.3 232.698C417.647 231.201 417.486 229.684 417.881 228.235C418.398 226.338 419.788 224.821 420.944 223.231C423.212 220.109 424.729 216.29 424.427 212.441C424.124 208.593 421.744 204.798 418.115 203.49C416.989 203.043 415.75 202.968 414.579 203.276C413.091 203.734 411.993 204.963 410.979 206.144L408.54 208.944C407.946 209.564 407.48 210.295 407.169 211.095C407.012 211.498 406.974 211.938 407.061 212.362C407.147 212.786 407.354 213.176 407.657 213.485" fill="#FBBEBE"/>
<path d="M414.485 192.159C412.807 192.257 410.959 192.423 409.773 193.623C409.276 194.174 408.874 194.803 408.583 195.486C407.432 197.832 406.31 200.286 406.227 202.9C406.159 204.988 406.764 207.032 407.081 209.095C407.344 210.812 406.676 212.563 406.549 214.3C408.632 213.661 411.383 212.792 413.271 211.714C414.558 210.978 415.802 210.139 417.207 209.671C419.212 209.002 422.573 210.158 424.48 211.085C424.582 209.749 423.577 207.417 423.685 206.076C423.7 205.511 423.8 204.952 423.982 204.417C424.268 203.852 424.606 203.314 424.992 202.812C425.718 201.632 426.052 200.252 425.946 198.87C425.84 197.489 425.299 196.176 424.402 195.12C422.709 193.218 420.061 192.506 417.534 192.194C415.943 192.009 414.339 191.954 412.739 192.028" fill="white"/>
<defs>
<linearGradient id="paint0_linear" x1="345.065" y1="266.413" x2="345.065" y2="28.0565" gradientUnits="userSpaceOnUse">
<stop stop-color="#808080" stop-opacity="0.25"/>
<stop offset="0.54" stop-color="#808080" stop-opacity="0.12"/>
<stop offset="1" stop-color="#808080" stop-opacity="0.1"/>
</linearGradient>
</defs>
</svg>
