<svg width="13" height="15" viewBox="0 0 13 15" fill="none" xmlns="http://www.w3.org/2000/svg">
<path d="M7.31436 0C7.50743 0 7.65594 0.1575 7.65594 0.345V2.76C7.65594 4.1325 8.77723 5.2575 10.1361 5.265C10.7005 5.265 11.146 5.2725 11.4876 5.2725L11.6141 5.27194C11.8424 5.27021 12.1498 5.265 12.4158 5.265C12.6015 5.265 12.75 5.415 12.75 5.6025V11.6325C12.75 13.4925 11.2574 15 9.41584 15H3.50495C1.57426 15 0 13.4175 0 11.4675V3.3825C0 1.5225 1.5 0 3.34901 0H7.31436ZM8.10891 9.675H4.06931C3.76485 9.675 3.51238 9.9225 3.51238 10.23C3.51238 10.5375 3.76485 10.7925 4.06931 10.7925H8.10891C8.41337 10.7925 8.66584 10.5375 8.66584 10.23C8.66584 9.9225 8.41337 9.675 8.10891 9.675ZM6.57921 5.925H4.06931C3.76485 5.925 3.51238 6.18 3.51238 6.4875C3.51238 6.795 3.76485 7.0425 4.06931 7.0425H6.57921C6.88366 7.0425 7.13614 6.795 7.13614 6.4875C7.13614 6.18 6.88366 5.925 6.57921 5.925ZM8.73802 0.6795C8.73802 0.35625 9.12639 0.19575 9.34842 0.429C10.1511 1.272 11.5539 2.74575 12.338 3.56925C12.5549 3.7965 12.3959 4.17375 12.0833 4.1745C11.4729 4.17675 10.7534 4.1745 10.2358 4.16925C9.41451 4.16925 8.73802 3.486 8.73802 2.6565V0.6795Z" fill="#7FCA9F"/>
</svg>
