<svg width="15" height="15" viewBox="0 0 15 15" fill="none" xmlns="http://www.w3.org/2000/svg">
<g clip-path="url(#clip0)">
<path d="M6.85528 2.49268H2.49296C2.1624 2.49268 1.84538 2.62399 1.61164 2.85773C1.3779 3.09147 1.24658 3.40849 1.24658 3.73905V12.4637C1.24658 12.7942 1.3779 13.1113 1.61164 13.345C1.84538 13.5788 2.1624 13.7101 2.49296 13.7101H11.2176C11.5482 13.7101 11.8652 13.5788 12.0989 13.345C12.3327 13.1113 12.464 12.7942 12.464 12.4637V8.10137" stroke="black" stroke-linecap="round" stroke-linejoin="round"/>
<path d="M11.5288 1.5581C11.7767 1.31018 12.113 1.1709 12.4636 1.1709C12.8142 1.1709 13.1505 1.31018 13.3984 1.5581C13.6463 1.80602 13.7856 2.14227 13.7856 2.49288C13.7856 2.84349 13.6463 3.17974 13.3984 3.42766L7.47811 9.34795L4.98535 9.97114L5.60854 7.47839L11.5288 1.5581Z" stroke="black" stroke-linecap="round" stroke-linejoin="round"/>
</g>
<defs>
<clipPath id="clip0">
<rect width="14.9565" height="14.9565" fill="white"/>
</clipPath>
</defs>
</svg>
