<svg width="42" height="42" viewBox="0 0 42 42" fill="none" xmlns="http://www.w3.org/2000/svg">
<rect width="42" height="42" rx="13" fill="#7FCA9F" fill-opacity="0.1"/>
<path d="M20.6393 19.8366L20.9934 19.835C22.465 19.835 23.8067 19.9212 24.6813 20.051L25.2252 20.1648C25.5132 20.228 25.8412 20.3112 26.0086 20.3979C26.6211 20.7154 27 21.3361 27 22.0005L27 22.0583C26.9857 22.4914 26.6057 23.4012 26.5924 23.4012C25.9782 24.8652 24.1243 27.6895 22.8026 28.994L22.4058 29.3731C22.2983 29.4723 22.171 29.5839 22.0718 29.6531C21.7656 29.8844 21.3866 30 21.0077 30C20.5847 30 20.1915 29.8702 19.8698 29.6247L19.4495 29.2353L19.3598 29.148C18.0766 27.9644 15.9782 24.8739 15.336 23.2572L15.2424 23.0131C15.1371 22.7194 15.0116 22.3078 15 22.0583C15 21.7408 15.0738 21.4376 15.2192 21.1485C15.423 20.7874 15.7446 20.4994 16.1236 20.3401C16.3857 20.2387 17.1733 20.0794 17.1876 20.0794C17.9817 19.9334 19.2348 19.8487 20.6393 19.8366ZM21.0004 12C21.8387 12 22.5183 12.6731 22.5183 13.5033L22.1912 17.2025C22.1912 17.8537 21.6581 18.3817 21.0004 18.3817C20.3417 18.3817 19.8097 17.8537 19.8097 17.2025L19.4825 13.5033C19.4825 12.6731 20.1622 12 21.0004 12Z" fill="#7FCA9F"/>
</svg>
