<svg width="15" height="15" viewBox="0 0 15 15" fill="none" xmlns="http://www.w3.org/2000/svg">
<path d="M10.7504 0C13.2923 0 15 1.78358 15 4.43754V10.5625C15 13.2164 13.2923 15 10.7496 15H4.24964C1.70767 15 0 13.2164 0 10.5625V4.43754C0 1.78358 1.70767 0 4.24964 0H10.7504ZM11.5774 7.91254C10.7735 7.41099 10.1528 8.11532 9.98536 8.34056C9.82397 8.55805 9.6852 8.79799 9.53889 9.03793C9.18141 9.63003 8.77188 10.3127 8.06295 10.7098C7.03274 11.2802 6.25065 10.7546 5.68803 10.3723C5.47686 10.2299 5.27172 10.0952 5.06734 10.0054C4.56355 9.78793 4.11028 10.0356 3.43755 10.8901C3.08459 11.3367 2.73465 11.7794 2.38019 12.2206C2.16826 12.4845 2.21879 12.8916 2.50463 13.0681C2.96091 13.3491 3.5175 13.5 4.14648 13.5H10.4673C10.824 13.5 11.1815 13.4512 11.5224 13.3398C12.2901 13.089 12.8995 12.5147 13.2178 11.7562C13.4863 11.1184 13.6168 10.3444 13.3656 9.70046C13.2819 9.48684 13.1567 9.28793 12.981 9.113C12.5202 8.65557 12.0895 8.22833 11.5774 7.91254ZM4.87414 3C3.84016 3 3 3.8413 3 4.875C3 5.9087 3.84016 6.75 4.87414 6.75C5.90737 6.75 6.74829 5.9087 6.74829 4.875C6.74829 3.8413 5.90737 3 4.87414 3Z" fill="#1563E3"/>
</svg>
