<svg width="186" height="136" viewBox="0 0 186 136" fill="none" xmlns="http://www.w3.org/2000/svg">
<rect y="26" width="186" height="110" rx="14" fill="url(#paint0_linear)"/>
<path d="M62 26H153V77C153 88.0457 144.046 97 133 97H82C70.9543 97 62 88.0457 62 77V26Z" fill="white" fill-opacity="0.03"/>
<path d="M146 136L62 136L62 92C62 80.9543 70.9543 72 82 72L126 72C137.046 72 146 80.9543 146 92L146 136Z" fill="white" fill-opacity="0.03"/>
<path d="M104 136L20 136L20 92C20 80.9543 28.9543 72 40 72L84 72C95.0457 72 104 80.9543 104 92L104 136Z" fill="white" fill-opacity="0.03"/>
<path d="M25.446 85.944C25.6607 86.0653 25.796 86.2193 25.852 86.406C25.9173 86.5833 25.8987 86.7607 25.796 86.938C25.6933 87.1247 25.544 87.2367 25.348 87.274C25.1613 87.3113 24.9607 87.2647 24.746 87.134C24.5687 87.0407 24.4053 86.9053 24.256 86.728C24.116 86.5413 23.8873 86.3173 23.57 86.056C23.6447 86.4667 23.7193 86.7793 23.794 86.994C23.878 87.2087 23.92 87.414 23.92 87.61C23.92 87.862 23.8547 88.0627 23.724 88.212C23.6027 88.352 23.4393 88.422 23.234 88.422C23.0193 88.422 22.8467 88.352 22.716 88.212C22.5947 88.0627 22.534 87.862 22.534 87.61C22.534 87.414 22.576 87.2087 22.66 86.994C22.744 86.7793 22.8187 86.4667 22.884 86.056C22.576 86.3173 22.3473 86.5413 22.198 86.728C22.0487 86.9053 21.89 87.0407 21.722 87.134C21.498 87.2647 21.2927 87.3113 21.106 87.274C20.9193 87.2367 20.77 87.1247 20.658 86.938C20.5553 86.7607 20.5367 86.5833 20.602 86.406C20.6673 86.2193 20.8073 86.0653 21.022 85.944C21.1993 85.8413 21.4 85.7713 21.624 85.734C21.848 85.6967 22.156 85.608 22.548 85.468C22.156 85.328 21.848 85.2393 21.624 85.202C21.4 85.1647 21.1993 85.0947 21.022 84.992C20.8073 84.8707 20.6673 84.7213 20.602 84.544C20.5367 84.3573 20.5553 84.1707 20.658 83.984C20.77 83.8067 20.9193 83.6993 21.106 83.662C21.2927 83.6247 21.498 83.6667 21.722 83.788C21.89 83.8907 22.0487 84.0307 22.198 84.208C22.3473 84.3853 22.576 84.6093 22.884 84.88C22.8187 84.4693 22.744 84.1567 22.66 83.942C22.576 83.7273 22.534 83.522 22.534 83.326C22.534 83.074 22.5947 82.878 22.716 82.738C22.8467 82.5887 23.0193 82.514 23.234 82.514C23.4393 82.514 23.6027 82.5887 23.724 82.738C23.8547 82.878 23.92 83.074 23.92 83.326C23.92 83.522 23.878 83.7273 23.794 83.942C23.7193 84.1567 23.6447 84.4693 23.57 84.88C23.8873 84.6093 24.116 84.3853 24.256 84.208C24.4053 84.0307 24.5687 83.8907 24.746 83.788C24.9607 83.6667 25.1613 83.6247 25.348 83.662C25.544 83.6993 25.6933 83.8067 25.796 83.984C25.8987 84.1707 25.9173 84.3573 25.852 84.544C25.796 84.7213 25.6607 84.8707 25.446 84.992C25.2687 85.0947 25.0633 85.1647 24.83 85.202C24.606 85.2393 24.298 85.328 23.906 85.468C24.298 85.608 24.606 85.6967 24.83 85.734C25.0633 85.7713 25.2687 85.8413 25.446 85.944ZM31.6257 85.944C31.8404 86.0653 31.9757 86.2193 32.0317 86.406C32.097 86.5833 32.0784 86.7607 31.9757 86.938C31.873 87.1247 31.7237 87.2367 31.5277 87.274C31.341 87.3113 31.1404 87.2647 30.9257 87.134C30.7484 87.0407 30.585 86.9053 30.4357 86.728C30.2957 86.5413 30.067 86.3173 29.7497 86.056C29.8244 86.4667 29.899 86.7793 29.9737 86.994C30.0577 87.2087 30.0997 87.414 30.0997 87.61C30.0997 87.862 30.0344 88.0627 29.9037 88.212C29.7824 88.352 29.619 88.422 29.4137 88.422C29.199 88.422 29.0264 88.352 28.8957 88.212C28.7744 88.0627 28.7137 87.862 28.7137 87.61C28.7137 87.414 28.7557 87.2087 28.8397 86.994C28.9237 86.7793 28.9984 86.4667 29.0637 86.056C28.7557 86.3173 28.527 86.5413 28.3777 86.728C28.2284 86.9053 28.0697 87.0407 27.9017 87.134C27.6777 87.2647 27.4724 87.3113 27.2857 87.274C27.099 87.2367 26.9497 87.1247 26.8377 86.938C26.735 86.7607 26.7164 86.5833 26.7817 86.406C26.847 86.2193 26.987 86.0653 27.2017 85.944C27.379 85.8413 27.5797 85.7713 27.8037 85.734C28.0277 85.6967 28.3357 85.608 28.7277 85.468C28.3357 85.328 28.0277 85.2393 27.8037 85.202C27.5797 85.1647 27.379 85.0947 27.2017 84.992C26.987 84.8707 26.847 84.7213 26.7817 84.544C26.7164 84.3573 26.735 84.1707 26.8377 83.984C26.9497 83.8067 27.099 83.6993 27.2857 83.662C27.4724 83.6247 27.6777 83.6667 27.9017 83.788C28.0697 83.8907 28.2284 84.0307 28.3777 84.208C28.527 84.3853 28.7557 84.6093 29.0637 84.88C28.9984 84.4693 28.9237 84.1567 28.8397 83.942C28.7557 83.7273 28.7137 83.522 28.7137 83.326C28.7137 83.074 28.7744 82.878 28.8957 82.738C29.0264 82.5887 29.199 82.514 29.4137 82.514C29.619 82.514 29.7824 82.5887 29.9037 82.738C30.0344 82.878 30.0997 83.074 30.0997 83.326C30.0997 83.522 30.0577 83.7273 29.9737 83.942C29.899 84.1567 29.8244 84.4693 29.7497 84.88C30.067 84.6093 30.2957 84.3853 30.4357 84.208C30.585 84.0307 30.7484 83.8907 30.9257 83.788C31.1404 83.6667 31.341 83.6247 31.5277 83.662C31.7237 83.6993 31.873 83.8067 31.9757 83.984C32.0784 84.1707 32.097 84.3573 32.0317 84.544C31.9757 84.7213 31.8404 84.8707 31.6257 84.992C31.4484 85.0947 31.243 85.1647 31.0097 85.202C30.7857 85.2393 30.4777 85.328 30.0857 85.468C30.4777 85.608 30.7857 85.6967 31.0097 85.734C31.243 85.7713 31.4484 85.8413 31.6257 85.944ZM37.8054 85.944C38.02 86.0653 38.1554 86.2193 38.2114 86.406C38.2767 86.5833 38.258 86.7607 38.1554 86.938C38.0527 87.1247 37.9034 87.2367 37.7074 87.274C37.5207 87.3113 37.32 87.2647 37.1054 87.134C36.928 87.0407 36.7647 86.9053 36.6154 86.728C36.4754 86.5413 36.2467 86.3173 35.9294 86.056C36.004 86.4667 36.0787 86.7793 36.1534 86.994C36.2374 87.2087 36.2794 87.414 36.2794 87.61C36.2794 87.862 36.214 88.0627 36.0834 88.212C35.962 88.352 35.7987 88.422 35.5934 88.422C35.3787 88.422 35.206 88.352 35.0754 88.212C34.954 88.0627 34.8934 87.862 34.8934 87.61C34.8934 87.414 34.9354 87.2087 35.0194 86.994C35.1034 86.7793 35.178 86.4667 35.2434 86.056C34.9354 86.3173 34.7067 86.5413 34.5574 86.728C34.408 86.9053 34.2494 87.0407 34.0814 87.134C33.8574 87.2647 33.652 87.3113 33.4654 87.274C33.2787 87.2367 33.1294 87.1247 33.0174 86.938C32.9147 86.7607 32.896 86.5833 32.9614 86.406C33.0267 86.2193 33.1667 86.0653 33.3814 85.944C33.5587 85.8413 33.7594 85.7713 33.9834 85.734C34.2074 85.6967 34.5154 85.608 34.9074 85.468C34.5154 85.328 34.2074 85.2393 33.9834 85.202C33.7594 85.1647 33.5587 85.0947 33.3814 84.992C33.1667 84.8707 33.0267 84.7213 32.9614 84.544C32.896 84.3573 32.9147 84.1707 33.0174 83.984C33.1294 83.8067 33.2787 83.6993 33.4654 83.662C33.652 83.6247 33.8574 83.6667 34.0814 83.788C34.2494 83.8907 34.408 84.0307 34.5574 84.208C34.7067 84.3853 34.9354 84.6093 35.2434 84.88C35.178 84.4693 35.1034 84.1567 35.0194 83.942C34.9354 83.7273 34.8934 83.522 34.8934 83.326C34.8934 83.074 34.954 82.878 35.0754 82.738C35.206 82.5887 35.3787 82.514 35.5934 82.514C35.7987 82.514 35.962 82.5887 36.0834 82.738C36.214 82.878 36.2794 83.074 36.2794 83.326C36.2794 83.522 36.2374 83.7273 36.1534 83.942C36.0787 84.1567 36.004 84.4693 35.9294 84.88C36.2467 84.6093 36.4754 84.3853 36.6154 84.208C36.7647 84.0307 36.928 83.8907 37.1054 83.788C37.32 83.6667 37.5207 83.6247 37.7074 83.662C37.9034 83.6993 38.0527 83.8067 38.1554 83.984C38.258 84.1707 38.2767 84.3573 38.2114 84.544C38.1554 84.7213 38.02 84.8707 37.8054 84.992C37.628 85.0947 37.4227 85.1647 37.1894 85.202C36.9654 85.2393 36.6574 85.328 36.2654 85.468C36.6574 85.608 36.9654 85.6967 37.1894 85.734C37.4227 85.7713 37.628 85.8413 37.8054 85.944ZM43.9851 85.944C44.1997 86.0653 44.3351 86.2193 44.3911 86.406C44.4564 86.5833 44.4377 86.7607 44.3351 86.938C44.2324 87.1247 44.0831 87.2367 43.8871 87.274C43.7004 87.3113 43.4997 87.2647 43.2851 87.134C43.1077 87.0407 42.9444 86.9053 42.7951 86.728C42.6551 86.5413 42.4264 86.3173 42.1091 86.056C42.1837 86.4667 42.2584 86.7793 42.3331 86.994C42.4171 87.2087 42.4591 87.414 42.4591 87.61C42.4591 87.862 42.3937 88.0627 42.2631 88.212C42.1417 88.352 41.9784 88.422 41.7731 88.422C41.5584 88.422 41.3857 88.352 41.2551 88.212C41.1337 88.0627 41.0731 87.862 41.0731 87.61C41.0731 87.414 41.1151 87.2087 41.1991 86.994C41.2831 86.7793 41.3577 86.4667 41.4231 86.056C41.1151 86.3173 40.8864 86.5413 40.7371 86.728C40.5877 86.9053 40.4291 87.0407 40.2611 87.134C40.0371 87.2647 39.8317 87.3113 39.6451 87.274C39.4584 87.2367 39.3091 87.1247 39.1971 86.938C39.0944 86.7607 39.0757 86.5833 39.1411 86.406C39.2064 86.2193 39.3464 86.0653 39.5611 85.944C39.7384 85.8413 39.9391 85.7713 40.1631 85.734C40.3871 85.6967 40.6951 85.608 41.0871 85.468C40.6951 85.328 40.3871 85.2393 40.1631 85.202C39.9391 85.1647 39.7384 85.0947 39.5611 84.992C39.3464 84.8707 39.2064 84.7213 39.1411 84.544C39.0757 84.3573 39.0944 84.1707 39.1971 83.984C39.3091 83.8067 39.4584 83.6993 39.6451 83.662C39.8317 83.6247 40.0371 83.6667 40.2611 83.788C40.4291 83.8907 40.5877 84.0307 40.7371 84.208C40.8864 84.3853 41.1151 84.6093 41.4231 84.88C41.3577 84.4693 41.2831 84.1567 41.1991 83.942C41.1151 83.7273 41.0731 83.522 41.0731 83.326C41.0731 83.074 41.1337 82.878 41.2551 82.738C41.3857 82.5887 41.5584 82.514 41.7731 82.514C41.9784 82.514 42.1417 82.5887 42.2631 82.738C42.3937 82.878 42.4591 83.074 42.4591 83.326C42.4591 83.522 42.4171 83.7273 42.3331 83.942C42.2584 84.1567 42.1837 84.4693 42.1091 84.88C42.4264 84.6093 42.6551 84.3853 42.7951 84.208C42.9444 84.0307 43.1077 83.8907 43.2851 83.788C43.4997 83.6667 43.7004 83.6247 43.8871 83.662C44.0831 83.6993 44.2324 83.8067 44.3351 83.984C44.4377 84.1707 44.4564 84.3573 44.3911 84.544C44.3351 84.7213 44.1997 84.8707 43.9851 84.992C43.8077 85.0947 43.6024 85.1647 43.3691 85.202C43.1451 85.2393 42.8371 85.328 42.4451 85.468C42.8371 85.608 43.1451 85.6967 43.3691 85.734C43.6024 85.7713 43.8077 85.8413 43.9851 85.944ZM50.1648 85.944C50.3794 86.0653 50.5148 86.2193 50.5708 86.406C50.6361 86.5833 50.6174 86.7607 50.5148 86.938C50.4121 87.1247 50.2628 87.2367 50.0668 87.274C49.8801 87.3113 49.6794 87.2647 49.4648 87.134C49.2874 87.0407 49.1241 86.9053 48.9748 86.728C48.8348 86.5413 48.6061 86.3173 48.2888 86.056C48.3634 86.4667 48.4381 86.7793 48.5128 86.994C48.5968 87.2087 48.6388 87.414 48.6388 87.61C48.6388 87.862 48.5734 88.0627 48.4428 88.212C48.3214 88.352 48.1581 88.422 47.9528 88.422C47.7381 88.422 47.5654 88.352 47.4348 88.212C47.3134 88.0627 47.2528 87.862 47.2528 87.61C47.2528 87.414 47.2948 87.2087 47.3788 86.994C47.4628 86.7793 47.5374 86.4667 47.6028 86.056C47.2948 86.3173 47.0661 86.5413 46.9168 86.728C46.7674 86.9053 46.6088 87.0407 46.4408 87.134C46.2168 87.2647 46.0114 87.3113 45.8248 87.274C45.6381 87.2367 45.4888 87.1247 45.3768 86.938C45.2741 86.7607 45.2554 86.5833 45.3208 86.406C45.3861 86.2193 45.5261 86.0653 45.7408 85.944C45.9181 85.8413 46.1188 85.7713 46.3428 85.734C46.5668 85.6967 46.8748 85.608 47.2668 85.468C46.8748 85.328 46.5668 85.2393 46.3428 85.202C46.1188 85.1647 45.9181 85.0947 45.7408 84.992C45.5261 84.8707 45.3861 84.7213 45.3208 84.544C45.2554 84.3573 45.2741 84.1707 45.3768 83.984C45.4888 83.8067 45.6381 83.6993 45.8248 83.662C46.0114 83.6247 46.2168 83.6667 46.4408 83.788C46.6088 83.8907 46.7674 84.0307 46.9168 84.208C47.0661 84.3853 47.2948 84.6093 47.6028 84.88C47.5374 84.4693 47.4628 84.1567 47.3788 83.942C47.2948 83.7273 47.2528 83.522 47.2528 83.326C47.2528 83.074 47.3134 82.878 47.4348 82.738C47.5654 82.5887 47.7381 82.514 47.9528 82.514C48.1581 82.514 48.3214 82.5887 48.4428 82.738C48.5734 82.878 48.6388 83.074 48.6388 83.326C48.6388 83.522 48.5968 83.7273 48.5128 83.942C48.4381 84.1567 48.3634 84.4693 48.2888 84.88C48.6061 84.6093 48.8348 84.3853 48.9748 84.208C49.1241 84.0307 49.2874 83.8907 49.4648 83.788C49.6794 83.6667 49.8801 83.6247 50.0668 83.662C50.2628 83.6993 50.4121 83.8067 50.5148 83.984C50.6174 84.1707 50.6361 84.3573 50.5708 84.544C50.5148 84.7213 50.3794 84.8707 50.1648 84.992C49.9874 85.0947 49.7821 85.1647 49.5488 85.202C49.3248 85.2393 49.0168 85.328 48.6248 85.468C49.0168 85.608 49.3248 85.6967 49.5488 85.734C49.7821 85.7713 49.9874 85.8413 50.1648 85.944ZM56.3444 85.944C56.5591 86.0653 56.6944 86.2193 56.7504 86.406C56.8158 86.5833 56.7971 86.7607 56.6944 86.938C56.5918 87.1247 56.4424 87.2367 56.2464 87.274C56.0598 87.3113 55.8591 87.2647 55.6444 87.134C55.4671 87.0407 55.3038 86.9053 55.1544 86.728C55.0144 86.5413 54.7858 86.3173 54.4684 86.056C54.5431 86.4667 54.6178 86.7793 54.6924 86.994C54.7764 87.2087 54.8184 87.414 54.8184 87.61C54.8184 87.862 54.7531 88.0627 54.6224 88.212C54.5011 88.352 54.3378 88.422 54.1324 88.422C53.9178 88.422 53.7451 88.352 53.6144 88.212C53.4931 88.0627 53.4324 87.862 53.4324 87.61C53.4324 87.414 53.4744 87.2087 53.5584 86.994C53.6424 86.7793 53.7171 86.4667 53.7824 86.056C53.4744 86.3173 53.2458 86.5413 53.0964 86.728C52.9471 86.9053 52.7884 87.0407 52.6204 87.134C52.3964 87.2647 52.1911 87.3113 52.0044 87.274C51.8178 87.2367 51.6684 87.1247 51.5564 86.938C51.4538 86.7607 51.4351 86.5833 51.5004 86.406C51.5658 86.2193 51.7058 86.0653 51.9204 85.944C52.0978 85.8413 52.2984 85.7713 52.5224 85.734C52.7464 85.6967 53.0544 85.608 53.4464 85.468C53.0544 85.328 52.7464 85.2393 52.5224 85.202C52.2984 85.1647 52.0978 85.0947 51.9204 84.992C51.7058 84.8707 51.5658 84.7213 51.5004 84.544C51.4351 84.3573 51.4538 84.1707 51.5564 83.984C51.6684 83.8067 51.8178 83.6993 52.0044 83.662C52.1911 83.6247 52.3964 83.6667 52.6204 83.788C52.7884 83.8907 52.9471 84.0307 53.0964 84.208C53.2458 84.3853 53.4744 84.6093 53.7824 84.88C53.7171 84.4693 53.6424 84.1567 53.5584 83.942C53.4744 83.7273 53.4324 83.522 53.4324 83.326C53.4324 83.074 53.4931 82.878 53.6144 82.738C53.7451 82.5887 53.9178 82.514 54.1324 82.514C54.3378 82.514 54.5011 82.5887 54.6224 82.738C54.7531 82.878 54.8184 83.074 54.8184 83.326C54.8184 83.522 54.7764 83.7273 54.6924 83.942C54.6178 84.1567 54.5431 84.4693 54.4684 84.88C54.7858 84.6093 55.0144 84.3853 55.1544 84.208C55.3038 84.0307 55.4671 83.8907 55.6444 83.788C55.8591 83.6667 56.0598 83.6247 56.2464 83.662C56.4424 83.6993 56.5918 83.8067 56.6944 83.984C56.7971 84.1707 56.8158 84.3573 56.7504 84.544C56.6944 84.7213 56.5591 84.8707 56.3444 84.992C56.1671 85.0947 55.9618 85.1647 55.7284 85.202C55.5044 85.2393 55.1964 85.328 54.8044 85.468C55.1964 85.608 55.5044 85.6967 55.7284 85.734C55.9618 85.7713 56.1671 85.8413 56.3444 85.944ZM62.5241 85.944C62.7388 86.0653 62.8741 86.2193 62.9301 86.406C62.9955 86.5833 62.9768 86.7607 62.8741 86.938C62.7715 87.1247 62.6221 87.2367 62.4261 87.274C62.2395 87.3113 62.0388 87.2647 61.8241 87.134C61.6468 87.0407 61.4835 86.9053 61.3341 86.728C61.1941 86.5413 60.9655 86.3173 60.6481 86.056C60.7228 86.4667 60.7975 86.7793 60.8721 86.994C60.9561 87.2087 60.9981 87.414 60.9981 87.61C60.9981 87.862 60.9328 88.0627 60.8021 88.212C60.6808 88.352 60.5175 88.422 60.3121 88.422C60.0975 88.422 59.9248 88.352 59.7941 88.212C59.6728 88.0627 59.6121 87.862 59.6121 87.61C59.6121 87.414 59.6541 87.2087 59.7381 86.994C59.8221 86.7793 59.8968 86.4667 59.9621 86.056C59.6541 86.3173 59.4255 86.5413 59.2761 86.728C59.1268 86.9053 58.9681 87.0407 58.8001 87.134C58.5761 87.2647 58.3708 87.3113 58.1841 87.274C57.9975 87.2367 57.8481 87.1247 57.7361 86.938C57.6335 86.7607 57.6148 86.5833 57.6801 86.406C57.7455 86.2193 57.8855 86.0653 58.1001 85.944C58.2775 85.8413 58.4781 85.7713 58.7021 85.734C58.9261 85.6967 59.2341 85.608 59.6261 85.468C59.2341 85.328 58.9261 85.2393 58.7021 85.202C58.4781 85.1647 58.2775 85.0947 58.1001 84.992C57.8855 84.8707 57.7455 84.7213 57.6801 84.544C57.6148 84.3573 57.6335 84.1707 57.7361 83.984C57.8481 83.8067 57.9975 83.6993 58.1841 83.662C58.3708 83.6247 58.5761 83.6667 58.8001 83.788C58.9681 83.8907 59.1268 84.0307 59.2761 84.208C59.4255 84.3853 59.6541 84.6093 59.9621 84.88C59.8968 84.4693 59.8221 84.1567 59.7381 83.942C59.6541 83.7273 59.6121 83.522 59.6121 83.326C59.6121 83.074 59.6728 82.878 59.7941 82.738C59.9248 82.5887 60.0975 82.514 60.3121 82.514C60.5175 82.514 60.6808 82.5887 60.8021 82.738C60.9328 82.878 60.9981 83.074 60.9981 83.326C60.9981 83.522 60.9561 83.7273 60.8721 83.942C60.7975 84.1567 60.7228 84.4693 60.6481 84.88C60.9655 84.6093 61.1941 84.3853 61.3341 84.208C61.4835 84.0307 61.6468 83.8907 61.8241 83.788C62.0388 83.6667 62.2395 83.6247 62.4261 83.662C62.6221 83.6993 62.7715 83.8067 62.8741 83.984C62.9768 84.1707 62.9955 84.3573 62.9301 84.544C62.8741 84.7213 62.7388 84.8707 62.5241 84.992C62.3468 85.0947 62.1415 85.1647 61.9081 85.202C61.6841 85.2393 61.3761 85.328 60.9841 85.468C61.3761 85.608 61.6841 85.6967 61.9081 85.734C62.1415 85.7713 62.3468 85.8413 62.5241 85.944ZM68.7038 85.944C68.9185 86.0653 69.0538 86.2193 69.1098 86.406C69.1751 86.5833 69.1565 86.7607 69.0538 86.938C68.9511 87.1247 68.8018 87.2367 68.6058 87.274C68.4191 87.3113 68.2185 87.2647 68.0038 87.134C67.8265 87.0407 67.6631 86.9053 67.5138 86.728C67.3738 86.5413 67.1451 86.3173 66.8278 86.056C66.9025 86.4667 66.9771 86.7793 67.0518 86.994C67.1358 87.2087 67.1778 87.414 67.1778 87.61C67.1778 87.862 67.1125 88.0627 66.9818 88.212C66.8605 88.352 66.6971 88.422 66.4918 88.422C66.2771 88.422 66.1045 88.352 65.9738 88.212C65.8525 88.0627 65.7918 87.862 65.7918 87.61C65.7918 87.414 65.8338 87.2087 65.9178 86.994C66.0018 86.7793 66.0765 86.4667 66.1418 86.056C65.8338 86.3173 65.6051 86.5413 65.4558 86.728C65.3065 86.9053 65.1478 87.0407 64.9798 87.134C64.7558 87.2647 64.5505 87.3113 64.3638 87.274C64.1771 87.2367 64.0278 87.1247 63.9158 86.938C63.8131 86.7607 63.7945 86.5833 63.8598 86.406C63.9251 86.2193 64.0651 86.0653 64.2798 85.944C64.4571 85.8413 64.6578 85.7713 64.8818 85.734C65.1058 85.6967 65.4138 85.608 65.8058 85.468C65.4138 85.328 65.1058 85.2393 64.8818 85.202C64.6578 85.1647 64.4571 85.0947 64.2798 84.992C64.0651 84.8707 63.9251 84.7213 63.8598 84.544C63.7945 84.3573 63.8131 84.1707 63.9158 83.984C64.0278 83.8067 64.1771 83.6993 64.3638 83.662C64.5505 83.6247 64.7558 83.6667 64.9798 83.788C65.1478 83.8907 65.3065 84.0307 65.4558 84.208C65.6051 84.3853 65.8338 84.6093 66.1418 84.88C66.0765 84.4693 66.0018 84.1567 65.9178 83.942C65.8338 83.7273 65.7918 83.522 65.7918 83.326C65.7918 83.074 65.8525 82.878 65.9738 82.738C66.1045 82.5887 66.2771 82.514 66.4918 82.514C66.6971 82.514 66.8605 82.5887 66.9818 82.738C67.1125 82.878 67.1778 83.074 67.1778 83.326C67.1778 83.522 67.1358 83.7273 67.0518 83.942C66.9771 84.1567 66.9025 84.4693 66.8278 84.88C67.1451 84.6093 67.3738 84.3853 67.5138 84.208C67.6631 84.0307 67.8265 83.8907 68.0038 83.788C68.2185 83.6667 68.4191 83.6247 68.6058 83.662C68.8018 83.6993 68.9511 83.8067 69.0538 83.984C69.1565 84.1707 69.1751 84.3573 69.1098 84.544C69.0538 84.7213 68.9185 84.8707 68.7038 84.992C68.5265 85.0947 68.3211 85.1647 68.0878 85.202C67.8638 85.2393 67.5558 85.328 67.1638 85.468C67.5558 85.608 67.8638 85.6967 68.0878 85.734C68.3211 85.7713 68.5265 85.8413 68.7038 85.944ZM74.8835 85.944C75.0982 86.0653 75.2335 86.2193 75.2895 86.406C75.3548 86.5833 75.3362 86.7607 75.2335 86.938C75.1308 87.1247 74.9815 87.2367 74.7855 87.274C74.5988 87.3113 74.3982 87.2647 74.1835 87.134C74.0062 87.0407 73.8428 86.9053 73.6935 86.728C73.5535 86.5413 73.3248 86.3173 73.0075 86.056C73.0822 86.4667 73.1568 86.7793 73.2315 86.994C73.3155 87.2087 73.3575 87.414 73.3575 87.61C73.3575 87.862 73.2922 88.0627 73.1615 88.212C73.0402 88.352 72.8768 88.422 72.6715 88.422C72.4568 88.422 72.2842 88.352 72.1535 88.212C72.0322 88.0627 71.9715 87.862 71.9715 87.61C71.9715 87.414 72.0135 87.2087 72.0975 86.994C72.1815 86.7793 72.2562 86.4667 72.3215 86.056C72.0135 86.3173 71.7848 86.5413 71.6355 86.728C71.4862 86.9053 71.3275 87.0407 71.1595 87.134C70.9355 87.2647 70.7302 87.3113 70.5435 87.274C70.3568 87.2367 70.2075 87.1247 70.0955 86.938C69.9928 86.7607 69.9742 86.5833 70.0395 86.406C70.1048 86.2193 70.2448 86.0653 70.4595 85.944C70.6368 85.8413 70.8375 85.7713 71.0615 85.734C71.2855 85.6967 71.5935 85.608 71.9855 85.468C71.5935 85.328 71.2855 85.2393 71.0615 85.202C70.8375 85.1647 70.6368 85.0947 70.4595 84.992C70.2448 84.8707 70.1048 84.7213 70.0395 84.544C69.9742 84.3573 69.9928 84.1707 70.0955 83.984C70.2075 83.8067 70.3568 83.6993 70.5435 83.662C70.7302 83.6247 70.9355 83.6667 71.1595 83.788C71.3275 83.8907 71.4862 84.0307 71.6355 84.208C71.7848 84.3853 72.0135 84.6093 72.3215 84.88C72.2562 84.4693 72.1815 84.1567 72.0975 83.942C72.0135 83.7273 71.9715 83.522 71.9715 83.326C71.9715 83.074 72.0322 82.878 72.1535 82.738C72.2842 82.5887 72.4568 82.514 72.6715 82.514C72.8768 82.514 73.0402 82.5887 73.1615 82.738C73.2922 82.878 73.3575 83.074 73.3575 83.326C73.3575 83.522 73.3155 83.7273 73.2315 83.942C73.1568 84.1567 73.0822 84.4693 73.0075 84.88C73.3248 84.6093 73.5535 84.3853 73.6935 84.208C73.8428 84.0307 74.0062 83.8907 74.1835 83.788C74.3982 83.6667 74.5988 83.6247 74.7855 83.662C74.9815 83.6993 75.1308 83.8067 75.2335 83.984C75.3362 84.1707 75.3548 84.3573 75.2895 84.544C75.2335 84.7213 75.0982 84.8707 74.8835 84.992C74.7062 85.0947 74.5008 85.1647 74.2675 85.202C74.0435 85.2393 73.7355 85.328 73.3435 85.468C73.7355 85.608 74.0435 85.6967 74.2675 85.734C74.5008 85.7713 74.7062 85.8413 74.8835 85.944ZM81.0632 85.944C81.2779 86.0653 81.4132 86.2193 81.4692 86.406C81.5345 86.5833 81.5159 86.7607 81.4132 86.938C81.3105 87.1247 81.1612 87.2367 80.9652 87.274C80.7785 87.3113 80.5779 87.2647 80.3632 87.134C80.1859 87.0407 80.0225 86.9053 79.8732 86.728C79.7332 86.5413 79.5045 86.3173 79.1872 86.056C79.2619 86.4667 79.3365 86.7793 79.4112 86.994C79.4952 87.2087 79.5372 87.414 79.5372 87.61C79.5372 87.862 79.4719 88.0627 79.3412 88.212C79.2199 88.352 79.0565 88.422 78.8512 88.422C78.6365 88.422 78.4639 88.352 78.3332 88.212C78.2119 88.0627 78.1512 87.862 78.1512 87.61C78.1512 87.414 78.1932 87.2087 78.2772 86.994C78.3612 86.7793 78.4359 86.4667 78.5012 86.056C78.1932 86.3173 77.9645 86.5413 77.8152 86.728C77.6659 86.9053 77.5072 87.0407 77.3392 87.134C77.1152 87.2647 76.9099 87.3113 76.7232 87.274C76.5365 87.2367 76.3872 87.1247 76.2752 86.938C76.1725 86.7607 76.1539 86.5833 76.2192 86.406C76.2845 86.2193 76.4245 86.0653 76.6392 85.944C76.8165 85.8413 77.0172 85.7713 77.2412 85.734C77.4652 85.6967 77.7732 85.608 78.1652 85.468C77.7732 85.328 77.4652 85.2393 77.2412 85.202C77.0172 85.1647 76.8165 85.0947 76.6392 84.992C76.4245 84.8707 76.2845 84.7213 76.2192 84.544C76.1539 84.3573 76.1725 84.1707 76.2752 83.984C76.3872 83.8067 76.5365 83.6993 76.7232 83.662C76.9099 83.6247 77.1152 83.6667 77.3392 83.788C77.5072 83.8907 77.6659 84.0307 77.8152 84.208C77.9645 84.3853 78.1932 84.6093 78.5012 84.88C78.4359 84.4693 78.3612 84.1567 78.2772 83.942C78.1932 83.7273 78.1512 83.522 78.1512 83.326C78.1512 83.074 78.2119 82.878 78.3332 82.738C78.4639 82.5887 78.6365 82.514 78.8512 82.514C79.0565 82.514 79.2199 82.5887 79.3412 82.738C79.4719 82.878 79.5372 83.074 79.5372 83.326C79.5372 83.522 79.4952 83.7273 79.4112 83.942C79.3365 84.1567 79.2619 84.4693 79.1872 84.88C79.5045 84.6093 79.7332 84.3853 79.8732 84.208C80.0225 84.0307 80.1859 83.8907 80.3632 83.788C80.5779 83.6667 80.7785 83.6247 80.9652 83.662C81.1612 83.6993 81.3105 83.8067 81.4132 83.984C81.5159 84.1707 81.5345 84.3573 81.4692 84.544C81.4132 84.7213 81.2779 84.8707 81.0632 84.992C80.8859 85.0947 80.6805 85.1647 80.4472 85.202C80.2232 85.2393 79.9152 85.328 79.5232 85.468C79.9152 85.608 80.2232 85.6967 80.4472 85.734C80.6805 85.7713 80.8859 85.8413 81.0632 85.944ZM87.2429 85.944C87.4575 86.0653 87.5929 86.2193 87.6489 86.406C87.7142 86.5833 87.6955 86.7607 87.5929 86.938C87.4902 87.1247 87.3409 87.2367 87.1449 87.274C86.9582 87.3113 86.7575 87.2647 86.5429 87.134C86.3655 87.0407 86.2022 86.9053 86.0529 86.728C85.9129 86.5413 85.6842 86.3173 85.3669 86.056C85.4415 86.4667 85.5162 86.7793 85.5909 86.994C85.6749 87.2087 85.7169 87.414 85.7169 87.61C85.7169 87.862 85.6515 88.0627 85.5209 88.212C85.3995 88.352 85.2362 88.422 85.0309 88.422C84.8162 88.422 84.6435 88.352 84.5129 88.212C84.3915 88.0627 84.3309 87.862 84.3309 87.61C84.3309 87.414 84.3729 87.2087 84.4569 86.994C84.5409 86.7793 84.6155 86.4667 84.6809 86.056C84.3729 86.3173 84.1442 86.5413 83.9949 86.728C83.8455 86.9053 83.6869 87.0407 83.5189 87.134C83.2949 87.2647 83.0895 87.3113 82.9029 87.274C82.7162 87.2367 82.5669 87.1247 82.4549 86.938C82.3522 86.7607 82.3335 86.5833 82.3989 86.406C82.4642 86.2193 82.6042 86.0653 82.8189 85.944C82.9962 85.8413 83.1969 85.7713 83.4209 85.734C83.6449 85.6967 83.9529 85.608 84.3449 85.468C83.9529 85.328 83.6449 85.2393 83.4209 85.202C83.1969 85.1647 82.9962 85.0947 82.8189 84.992C82.6042 84.8707 82.4642 84.7213 82.3989 84.544C82.3335 84.3573 82.3522 84.1707 82.4549 83.984C82.5669 83.8067 82.7162 83.6993 82.9029 83.662C83.0895 83.6247 83.2949 83.6667 83.5189 83.788C83.6869 83.8907 83.8455 84.0307 83.9949 84.208C84.1442 84.3853 84.3729 84.6093 84.6809 84.88C84.6155 84.4693 84.5409 84.1567 84.4569 83.942C84.3729 83.7273 84.3309 83.522 84.3309 83.326C84.3309 83.074 84.3915 82.878 84.5129 82.738C84.6435 82.5887 84.8162 82.514 85.0309 82.514C85.2362 82.514 85.3995 82.5887 85.5209 82.738C85.6515 82.878 85.7169 83.074 85.7169 83.326C85.7169 83.522 85.6749 83.7273 85.5909 83.942C85.5162 84.1567 85.4415 84.4693 85.3669 84.88C85.6842 84.6093 85.9129 84.3853 86.0529 84.208C86.2022 84.0307 86.3655 83.8907 86.5429 83.788C86.7575 83.6667 86.9582 83.6247 87.1449 83.662C87.3409 83.6993 87.4902 83.8067 87.5929 83.984C87.6955 84.1707 87.7142 84.3573 87.6489 84.544C87.5929 84.7213 87.4575 84.8707 87.2429 84.992C87.0655 85.0947 86.8602 85.1647 86.6269 85.202C86.4029 85.2393 86.0949 85.328 85.7029 85.468C86.0949 85.608 86.4029 85.6967 86.6269 85.734C86.8602 85.7713 87.0655 85.8413 87.2429 85.944ZM93.4226 85.944C93.6372 86.0653 93.7726 86.2193 93.8286 86.406C93.8939 86.5833 93.8752 86.7607 93.7726 86.938C93.6699 87.1247 93.5206 87.2367 93.3246 87.274C93.1379 87.3113 92.9372 87.2647 92.7226 87.134C92.5452 87.0407 92.3819 86.9053 92.2326 86.728C92.0926 86.5413 91.8639 86.3173 91.5466 86.056C91.6212 86.4667 91.6959 86.7793 91.7706 86.994C91.8546 87.2087 91.8966 87.414 91.8966 87.61C91.8966 87.862 91.8312 88.0627 91.7006 88.212C91.5792 88.352 91.4159 88.422 91.2106 88.422C90.9959 88.422 90.8232 88.352 90.6926 88.212C90.5712 88.0627 90.5106 87.862 90.5106 87.61C90.5106 87.414 90.5526 87.2087 90.6366 86.994C90.7206 86.7793 90.7952 86.4667 90.8606 86.056C90.5526 86.3173 90.3239 86.5413 90.1746 86.728C90.0252 86.9053 89.8666 87.0407 89.6986 87.134C89.4746 87.2647 89.2692 87.3113 89.0826 87.274C88.8959 87.2367 88.7466 87.1247 88.6346 86.938C88.5319 86.7607 88.5132 86.5833 88.5786 86.406C88.6439 86.2193 88.7839 86.0653 88.9986 85.944C89.1759 85.8413 89.3766 85.7713 89.6006 85.734C89.8246 85.6967 90.1326 85.608 90.5246 85.468C90.1326 85.328 89.8246 85.2393 89.6006 85.202C89.3766 85.1647 89.1759 85.0947 88.9986 84.992C88.7839 84.8707 88.6439 84.7213 88.5786 84.544C88.5132 84.3573 88.5319 84.1707 88.6346 83.984C88.7466 83.8067 88.8959 83.6993 89.0826 83.662C89.2692 83.6247 89.4746 83.6667 89.6986 83.788C89.8666 83.8907 90.0252 84.0307 90.1746 84.208C90.3239 84.3853 90.5526 84.6093 90.8606 84.88C90.7952 84.4693 90.7206 84.1567 90.6366 83.942C90.5526 83.7273 90.5106 83.522 90.5106 83.326C90.5106 83.074 90.5712 82.878 90.6926 82.738C90.8232 82.5887 90.9959 82.514 91.2106 82.514C91.4159 82.514 91.5792 82.5887 91.7006 82.738C91.8312 82.878 91.8966 83.074 91.8966 83.326C91.8966 83.522 91.8546 83.7273 91.7706 83.942C91.6959 84.1567 91.6212 84.4693 91.5466 84.88C91.8639 84.6093 92.0926 84.3853 92.2326 84.208C92.3819 84.0307 92.5452 83.8907 92.7226 83.788C92.9372 83.6667 93.1379 83.6247 93.3246 83.662C93.5206 83.6993 93.6699 83.8067 93.7726 83.984C93.8752 84.1707 93.8939 84.3573 93.8286 84.544C93.7726 84.7213 93.6372 84.8707 93.4226 84.992C93.2452 85.0947 93.0399 85.1647 92.8066 85.202C92.5826 85.2393 92.2746 85.328 91.8826 85.468C92.2746 85.608 92.5826 85.6967 92.8066 85.734C93.0399 85.7713 93.2452 85.8413 93.4226 85.944ZM99.6023 85.944C99.8169 86.0653 99.9523 86.2193 100.008 86.406C100.074 86.5833 100.055 86.7607 99.9523 86.938C99.8496 87.1247 99.7003 87.2367 99.5043 87.274C99.3176 87.3113 99.1169 87.2647 98.9023 87.134C98.7249 87.0407 98.5616 86.9053 98.4123 86.728C98.2723 86.5413 98.0436 86.3173 97.7263 86.056C97.8009 86.4667 97.8756 86.7793 97.9503 86.994C98.0343 87.2087 98.0763 87.414 98.0763 87.61C98.0763 87.862 98.0109 88.0627 97.8803 88.212C97.7589 88.352 97.5956 88.422 97.3903 88.422C97.1756 88.422 97.0029 88.352 96.8723 88.212C96.7509 88.0627 96.6903 87.862 96.6903 87.61C96.6903 87.414 96.7323 87.2087 96.8163 86.994C96.9003 86.7793 96.9749 86.4667 97.0403 86.056C96.7323 86.3173 96.5036 86.5413 96.3543 86.728C96.2049 86.9053 96.0463 87.0407 95.8783 87.134C95.6543 87.2647 95.4489 87.3113 95.2623 87.274C95.0756 87.2367 94.9263 87.1247 94.8143 86.938C94.7116 86.7607 94.6929 86.5833 94.7583 86.406C94.8236 86.2193 94.9636 86.0653 95.1783 85.944C95.3556 85.8413 95.5563 85.7713 95.7803 85.734C96.0043 85.6967 96.3123 85.608 96.7043 85.468C96.3123 85.328 96.0043 85.2393 95.7803 85.202C95.5563 85.1647 95.3556 85.0947 95.1783 84.992C94.9636 84.8707 94.8236 84.7213 94.7583 84.544C94.6929 84.3573 94.7116 84.1707 94.8143 83.984C94.9263 83.8067 95.0756 83.6993 95.2623 83.662C95.4489 83.6247 95.6543 83.6667 95.8783 83.788C96.0463 83.8907 96.2049 84.0307 96.3543 84.208C96.5036 84.3853 96.7323 84.6093 97.0403 84.88C96.9749 84.4693 96.9003 84.1567 96.8163 83.942C96.7323 83.7273 96.6903 83.522 96.6903 83.326C96.6903 83.074 96.7509 82.878 96.8723 82.738C97.0029 82.5887 97.1756 82.514 97.3903 82.514C97.5956 82.514 97.7589 82.5887 97.8803 82.738C98.0109 82.878 98.0763 83.074 98.0763 83.326C98.0763 83.522 98.0343 83.7273 97.9503 83.942C97.8756 84.1567 97.8009 84.4693 97.7263 84.88C98.0436 84.6093 98.2723 84.3853 98.4123 84.208C98.5616 84.0307 98.7249 83.8907 98.9023 83.788C99.1169 83.6667 99.3176 83.6247 99.5043 83.662C99.7003 83.6993 99.8496 83.8067 99.9523 83.984C100.055 84.1707 100.074 84.3573 100.008 84.544C99.9523 84.7213 99.8169 84.8707 99.6023 84.992C99.4249 85.0947 99.2196 85.1647 98.9863 85.202C98.7623 85.2393 98.4543 85.328 98.0623 85.468C98.4543 85.608 98.7623 85.6967 98.9863 85.734C99.2196 85.7713 99.4249 85.8413 99.6023 85.944ZM105.782 85.944C105.997 86.0653 106.132 86.2193 106.188 86.406C106.253 86.5833 106.235 86.7607 106.132 86.938C106.029 87.1247 105.88 87.2367 105.684 87.274C105.497 87.3113 105.297 87.2647 105.082 87.134C104.905 87.0407 104.741 86.9053 104.592 86.728C104.452 86.5413 104.223 86.3173 103.906 86.056C103.981 86.4667 104.055 86.7793 104.13 86.994C104.214 87.2087 104.256 87.414 104.256 87.61C104.256 87.862 104.191 88.0627 104.06 88.212C103.939 88.352 103.775 88.422 103.57 88.422C103.355 88.422 103.183 88.352 103.052 88.212C102.931 88.0627 102.87 87.862 102.87 87.61C102.87 87.414 102.912 87.2087 102.996 86.994C103.08 86.7793 103.155 86.4667 103.22 86.056C102.912 86.3173 102.683 86.5413 102.534 86.728C102.385 86.9053 102.226 87.0407 102.058 87.134C101.834 87.2647 101.629 87.3113 101.442 87.274C101.255 87.2367 101.106 87.1247 100.994 86.938C100.891 86.7607 100.873 86.5833 100.938 86.406C101.003 86.2193 101.143 86.0653 101.358 85.944C101.535 85.8413 101.736 85.7713 101.96 85.734C102.184 85.6967 102.492 85.608 102.884 85.468C102.492 85.328 102.184 85.2393 101.96 85.202C101.736 85.1647 101.535 85.0947 101.358 84.992C101.143 84.8707 101.003 84.7213 100.938 84.544C100.873 84.3573 100.891 84.1707 100.994 83.984C101.106 83.8067 101.255 83.6993 101.442 83.662C101.629 83.6247 101.834 83.6667 102.058 83.788C102.226 83.8907 102.385 84.0307 102.534 84.208C102.683 84.3853 102.912 84.6093 103.22 84.88C103.155 84.4693 103.08 84.1567 102.996 83.942C102.912 83.7273 102.87 83.522 102.87 83.326C102.87 83.074 102.931 82.878 103.052 82.738C103.183 82.5887 103.355 82.514 103.57 82.514C103.775 82.514 103.939 82.5887 104.06 82.738C104.191 82.878 104.256 83.074 104.256 83.326C104.256 83.522 104.214 83.7273 104.13 83.942C104.055 84.1567 103.981 84.4693 103.906 84.88C104.223 84.6093 104.452 84.3853 104.592 84.208C104.741 84.0307 104.905 83.8907 105.082 83.788C105.297 83.6667 105.497 83.6247 105.684 83.662C105.88 83.6993 106.029 83.8067 106.132 83.984C106.235 84.1707 106.253 84.3573 106.188 84.544C106.132 84.7213 105.997 84.8707 105.782 84.992C105.605 85.0947 105.399 85.1647 105.166 85.202C104.942 85.2393 104.634 85.328 104.242 85.468C104.634 85.608 104.942 85.6967 105.166 85.734C105.399 85.7713 105.605 85.8413 105.782 85.944ZM111.962 85.944C112.176 86.0653 112.312 86.2193 112.368 86.406C112.433 86.5833 112.414 86.7607 112.312 86.938C112.209 87.1247 112.06 87.2367 111.864 87.274C111.677 87.3113 111.476 87.2647 111.262 87.134C111.084 87.0407 110.921 86.9053 110.772 86.728C110.632 86.5413 110.403 86.3173 110.086 86.056C110.16 86.4667 110.235 86.7793 110.31 86.994C110.394 87.2087 110.436 87.414 110.436 87.61C110.436 87.862 110.37 88.0627 110.24 88.212C110.118 88.352 109.955 88.422 109.75 88.422C109.535 88.422 109.362 88.352 109.232 88.212C109.11 88.0627 109.05 87.862 109.05 87.61C109.05 87.414 109.092 87.2087 109.176 86.994C109.26 86.7793 109.334 86.4667 109.4 86.056C109.092 86.3173 108.863 86.5413 108.714 86.728C108.564 86.9053 108.406 87.0407 108.238 87.134C108.014 87.2647 107.808 87.3113 107.622 87.274C107.435 87.2367 107.286 87.1247 107.174 86.938C107.071 86.7607 107.052 86.5833 107.118 86.406C107.183 86.2193 107.323 86.0653 107.538 85.944C107.715 85.8413 107.916 85.7713 108.14 85.734C108.364 85.6967 108.672 85.608 109.064 85.468C108.672 85.328 108.364 85.2393 108.14 85.202C107.916 85.1647 107.715 85.0947 107.538 84.992C107.323 84.8707 107.183 84.7213 107.118 84.544C107.052 84.3573 107.071 84.1707 107.174 83.984C107.286 83.8067 107.435 83.6993 107.622 83.662C107.808 83.6247 108.014 83.6667 108.238 83.788C108.406 83.8907 108.564 84.0307 108.714 84.208C108.863 84.3853 109.092 84.6093 109.4 84.88C109.334 84.4693 109.26 84.1567 109.176 83.942C109.092 83.7273 109.05 83.522 109.05 83.326C109.05 83.074 109.11 82.878 109.232 82.738C109.362 82.5887 109.535 82.514 109.75 82.514C109.955 82.514 110.118 82.5887 110.24 82.738C110.37 82.878 110.436 83.074 110.436 83.326C110.436 83.522 110.394 83.7273 110.31 83.942C110.235 84.1567 110.16 84.4693 110.086 84.88C110.403 84.6093 110.632 84.3853 110.772 84.208C110.921 84.0307 111.084 83.8907 111.262 83.788C111.476 83.6667 111.677 83.6247 111.864 83.662C112.06 83.6993 112.209 83.8067 112.312 83.984C112.414 84.1707 112.433 84.3573 112.368 84.544C112.312 84.7213 112.176 84.8707 111.962 84.992C111.784 85.0947 111.579 85.1647 111.346 85.202C111.122 85.2393 110.814 85.328 110.422 85.468C110.814 85.608 111.122 85.6967 111.346 85.734C111.579 85.7713 111.784 85.8413 111.962 85.944ZM116.581 93.126C116.095 93.126 115.596 93.07 115.083 92.958C114.569 92.846 114.154 92.678 113.837 92.454L114.285 90.928C114.593 91.124 114.947 91.278 115.349 91.39C115.75 91.502 116.198 91.558 116.693 91.558C117.327 91.558 117.817 91.432 118.163 91.18C118.517 90.9187 118.695 90.5547 118.695 90.088C118.695 89.612 118.517 89.2573 118.163 89.024C117.817 88.7907 117.341 88.674 116.735 88.674H116.133V87.246H116.581C117.234 87.246 117.715 87.1107 118.023 86.84C118.34 86.56 118.499 86.196 118.499 85.748C118.499 85.3747 118.368 85.0713 118.107 84.838C117.855 84.6047 117.491 84.488 117.015 84.488C116.52 84.488 116.105 84.628 115.769 84.908C115.433 85.188 115.181 85.58 115.013 86.084L113.711 85.398C113.935 84.67 114.355 84.0773 114.971 83.62C115.587 83.1533 116.324 82.92 117.183 82.92C117.817 82.92 118.363 83.032 118.821 83.256C119.278 83.48 119.628 83.7927 119.871 84.194C120.123 84.5953 120.249 85.0573 120.249 85.58C120.249 86.084 120.113 86.546 119.843 86.966C119.572 87.3767 119.18 87.68 118.667 87.876C119.236 88.0347 119.675 88.31 119.983 88.702C120.3 89.0847 120.459 89.57 120.459 90.158C120.459 90.746 120.3 91.264 119.983 91.712C119.665 92.16 119.217 92.51 118.639 92.762C118.06 93.0047 117.374 93.126 116.581 93.126ZM126.333 93V90.438H121.895V89.22L126.823 83.032H128.041V89.024H129.441V90.438H128.041V93H126.333ZM123.729 89.024H126.333V85.734L123.729 89.024ZM133.37 93.126C132.884 93.126 132.385 93.07 131.872 92.958C131.358 92.846 130.943 92.6733 130.626 92.44L131.074 90.9C131.382 91.096 131.736 91.2547 132.138 91.376C132.539 91.4973 132.987 91.558 133.482 91.558C134.126 91.558 134.62 91.418 134.966 91.138C135.311 90.8487 135.484 90.4473 135.484 89.934C135.484 89.626 135.404 89.3507 135.246 89.108C135.087 88.8653 134.807 88.674 134.406 88.534C134.014 88.3847 133.463 88.3007 132.754 88.282L131.228 88.226L131.62 83.06H136.744V84.488H133.23L133.048 86.812H133.146C134.527 86.8587 135.554 87.1527 136.226 87.694C136.907 88.226 137.248 88.9633 137.248 89.906C137.248 90.55 137.089 91.1147 136.772 91.6C136.454 92.076 136.002 92.4493 135.414 92.72C134.835 92.9907 134.154 93.126 133.37 93.126ZM142.66 93.126C141.484 93.126 140.574 92.7293 139.93 91.936C139.286 91.1427 138.964 89.934 138.964 88.31C138.964 87.1993 139.137 86.2427 139.482 85.44C139.828 84.628 140.308 84.0073 140.924 83.578C141.54 83.1393 142.25 82.92 143.052 82.92C144.574 82.92 145.61 83.648 146.16 85.104L144.69 85.79C144.522 85.3327 144.298 85.0013 144.018 84.796C143.738 84.5907 143.384 84.488 142.954 84.488C142.31 84.488 141.774 84.7773 141.344 85.356C140.924 85.9347 140.714 86.7793 140.714 87.89C140.966 87.5167 141.298 87.2273 141.708 87.022C142.128 86.8167 142.595 86.714 143.108 86.714C143.668 86.714 144.177 86.8353 144.634 87.078C145.092 87.3113 145.456 87.6567 145.726 88.114C145.997 88.562 146.132 89.0987 146.132 89.724C146.132 90.368 145.988 90.9467 145.698 91.46C145.409 91.9733 145.003 92.3793 144.48 92.678C143.958 92.9767 143.351 93.126 142.66 93.126ZM142.646 91.684C143.169 91.684 143.584 91.5113 143.892 91.166C144.21 90.8113 144.368 90.382 144.368 89.878C144.368 89.3553 144.219 88.94 143.92 88.632C143.631 88.3147 143.225 88.156 142.702 88.156C142.189 88.156 141.764 88.3287 141.428 88.674C141.102 89.01 140.938 89.4347 140.938 89.948C140.938 90.508 141.097 90.9373 141.414 91.236C141.732 91.5347 142.142 91.684 142.646 91.684ZM150.159 93.126C149.674 93.126 149.174 93.07 148.661 92.958C148.148 92.846 147.732 92.6733 147.415 92.44L147.863 90.9C148.171 91.096 148.526 91.2547 148.927 91.376C149.328 91.4973 149.776 91.558 150.271 91.558C150.915 91.558 151.41 91.418 151.755 91.138C152.1 90.8487 152.273 90.4473 152.273 89.934C152.273 89.626 152.194 89.3507 152.035 89.108C151.876 88.8653 151.596 88.674 151.195 88.534C150.803 88.3847 150.252 88.3007 149.543 88.282L148.017 88.226L148.409 83.06H153.533V84.488H150.019L149.837 86.812H149.935C151.316 86.8587 152.343 87.1527 153.015 87.694C153.696 88.226 154.037 88.9633 154.037 89.906C154.037 90.55 153.878 91.1147 153.561 91.6C153.244 92.076 152.791 92.4493 152.203 92.72C151.624 92.9907 150.943 93.126 150.159 93.126Z" fill="white"/>
<path d="M22.96 65.08C22.2133 65.0733 21.63 64.7833 21.21 64.21C20.7967 63.63 20.59 62.7533 20.59 61.58C20.59 60.82 20.6933 60.1567 20.9 59.59C21.1133 59.0233 21.41 58.5833 21.79 58.27C22.17 57.9567 22.61 57.8 23.11 57.8C23.8167 57.8 24.3767 58.1067 24.79 58.72C25.2033 59.3333 25.41 60.1967 25.41 61.31C25.41 62.11 25.3033 62.79 25.09 63.35C24.8833 63.91 24.5967 64.34 24.23 64.64C23.8633 64.9333 23.44 65.08 22.96 65.08ZM22.96 64.55C23.52 64.55 23.9767 64.28 24.33 63.74C24.6833 63.1933 24.86 62.3733 24.86 61.28C24.86 60.3267 24.7033 59.5933 24.39 59.08C24.0767 58.5667 23.65 58.31 23.11 58.31C22.53 58.31 22.0567 58.5967 21.69 59.17C21.33 59.7433 21.15 60.55 21.15 61.59C21.15 62.5967 21.31 63.3433 21.63 63.83C21.9567 64.31 22.4 64.55 22.96 64.55ZM33.3661 65.08C32.9594 65.08 32.5794 65.0333 32.2261 64.94C31.8794 64.84 31.5928 64.71 31.3661 64.55L31.5761 64.05C31.7961 64.21 32.0561 64.3367 32.3561 64.43C32.6628 64.5167 33.0128 64.56 33.4061 64.56C33.9528 64.56 34.3928 64.43 34.7261 64.17C35.0594 63.91 35.2261 63.54 35.2261 63.06C35.2261 62.5733 35.0661 62.2133 34.7461 61.98C34.4261 61.7467 34.0228 61.63 33.5361 61.63H33.1361V61.13H33.3461C33.8861 61.13 34.3128 61.0033 34.6261 60.75C34.9461 60.49 35.1061 60.11 35.1061 59.61C35.1061 59.2233 34.9728 58.91 34.7061 58.67C34.4461 58.43 34.0961 58.31 33.6561 58.31C33.1961 58.31 32.8161 58.4333 32.5161 58.68C32.2228 58.92 31.9961 59.2867 31.8361 59.78L31.3861 59.58C31.5394 59.06 31.8061 58.6333 32.1861 58.3C32.5728 57.9667 33.0661 57.8 33.6661 57.8C34.0928 57.8 34.4528 57.8833 34.7461 58.05C35.0461 58.2167 35.2761 58.4367 35.4361 58.71C35.5961 58.9767 35.6761 59.2733 35.6761 59.6C35.6761 60.02 35.5628 60.3833 35.3361 60.69C35.1161 60.99 34.8128 61.2067 34.4261 61.34C34.8594 61.46 35.1961 61.6667 35.4361 61.96C35.6761 62.2533 35.7961 62.6233 35.7961 63.07C35.7961 63.7033 35.5761 64.1967 35.1361 64.55C34.7028 64.9033 34.1128 65.08 33.3661 65.08ZM41.1922 67L43.6922 57.6H44.2422L41.7422 67H41.1922ZM49.8307 65V64.63C50.5307 64.0367 51.104 63.5067 51.5507 63.04C51.9974 62.5667 52.344 62.1367 52.5907 61.75C52.844 61.3633 53.0207 61.01 53.1207 60.69C53.2207 60.3633 53.2707 60.0567 53.2707 59.77C53.2707 59.3233 53.1374 58.97 52.8707 58.71C52.6107 58.4433 52.2607 58.31 51.8207 58.31C50.9274 58.31 50.324 58.8 50.0107 59.78L49.5607 59.58C49.714 59.06 49.9807 58.6333 50.3607 58.3C50.7474 57.9667 51.234 57.8 51.8207 57.8C52.414 57.8 52.894 57.9733 53.2607 58.32C53.634 58.66 53.8274 59.1333 53.8407 59.74C53.8407 60.2067 53.734 60.6833 53.5207 61.17C53.314 61.65 52.9707 62.1667 52.4907 62.72C52.0174 63.2667 51.3874 63.87 50.6007 64.53H54.0307V65H49.8307ZM60.4268 65V64.63C61.1268 64.0367 61.7001 63.5067 62.1468 63.04C62.5935 62.5667 62.9401 62.1367 63.1868 61.75C63.4401 61.3633 63.6168 61.01 63.7168 60.69C63.8168 60.3633 63.8668 60.0567 63.8668 59.77C63.8668 59.3233 63.7335 58.97 63.4668 58.71C63.2068 58.4433 62.8568 58.31 62.4168 58.31C61.5235 58.31 60.9201 58.8 60.6068 59.78L60.1568 59.58C60.3101 59.06 60.5768 58.6333 60.9568 58.3C61.3435 57.9667 61.8301 57.8 62.4168 57.8C63.0101 57.8 63.4901 57.9733 63.8568 58.32C64.2301 58.66 64.4235 59.1333 64.4368 59.74C64.4368 60.2067 64.3301 60.6833 64.1168 61.17C63.9101 61.65 63.5668 62.1667 63.0868 62.72C62.6135 63.2667 61.9835 63.87 61.1968 64.53H64.6268V65H60.4268Z" fill="white"/>
<rect width="186" height="110" rx="14" fill="url(#paint1_linear)"/>
<path d="M62 0H153V51C153 62.0457 144.046 71 133 71H82C70.9543 71 62 62.0457 62 51V0Z" fill="white" fill-opacity="0.03"/>
<path d="M146 110L62 110L62 66C62 54.9543 70.9543 46 82 46L126 46C137.046 46 146 54.9543 146 66L146 110Z" fill="white" fill-opacity="0.03"/>
<path d="M104 110L20 110L20 66C20 54.9543 28.9543 46 40 46L84 46C95.0457 46 104 54.9543 104 66L104 110Z" fill="white" fill-opacity="0.03"/>
<defs>
<linearGradient id="paint0_linear" x1="156.817" y1="106.937" x2="-282.645" y2="-148.119" gradientUnits="userSpaceOnUse">
<stop stop-color="#1463E3"/>
<stop offset="1" stop-color="#1669F0"/>
</linearGradient>
<linearGradient id="paint1_linear" x1="156.817" y1="80.9375" x2="-282.645" y2="-174.119" gradientUnits="userSpaceOnUse">
<stop stop-color="#021F4F"/>
<stop offset="1" stop-color="#1669F0"/>
</linearGradient>
</defs>
</svg>
