<svg width="39" height="37" viewBox="0 0 39 37" fill="none" xmlns="http://www.w3.org/2000/svg">
<path d="M20.9729 27.6711L20.9729 35.4781C20.9729 36.3082 20.3108 37 19.4734 37C18.6555 37 17.9739 36.3082 17.9739 35.4781L17.9739 27.6711L8.66574 27.6705C3.89472 27.6705 -5.83604e-07 23.6487 -7.9896e-07 18.7219L-1.22791e-06 8.9086C-1.44239e-06 4.00194 3.89472 0.000194379 8.64627 0.000194172L30.3009 0.000193225C35.0719 0.000193017 38.9472 4.00194 38.9472 8.94882L38.9472 18.742C38.9472 23.6487 35.0719 27.6705 30.3204 27.6705L20.9731 27.6705L20.9731 15.2028L24.0888 18.4203C24.673 19.0236 25.6272 19.0236 26.2114 18.4203C26.5035 18.1186 26.6399 17.7165 26.6399 17.3143C26.6399 16.9322 26.5035 16.53 26.2114 16.2284L20.5446 10.3565C20.272 10.0548 19.8825 9.89395 19.4736 9.89395C19.0841 9.89395 18.6946 10.0548 18.422 10.3565L12.7552 16.2284C12.171 16.8317 12.171 17.817 12.7552 18.4203C13.3394 19.0236 14.2936 19.0236 14.8778 18.4203L17.9741 15.2028L17.9741 27.6705L20.9729 27.6711Z" fill="#1460DD"/>
</svg>
