<svg width="62" height="62" viewBox="0 0 62 62" fill="none" xmlns="http://www.w3.org/2000/svg">
<circle opacity="0.1" cx="31" cy="31" r="31" fill="#C3272E"/>
<path d="M38.3745 43.875V41.125C38.3745 39.6663 37.795 38.2674 36.7636 37.2359C35.7321 36.2045 34.3332 35.625 32.8745 35.625H21.8745C20.4158 35.625 19.0169 36.2045 17.9854 37.2359C16.954 38.2674 16.3745 39.6663 16.3745 41.125V43.875" stroke="#C3272E" stroke-width="2.75" stroke-linecap="round" stroke-linejoin="round"/>
<path d="M27.3755 30.125C30.4131 30.125 32.8755 27.6626 32.8755 24.625C32.8755 21.5874 30.4131 19.125 27.3755 19.125C24.3379 19.125 21.8755 21.5874 21.8755 24.625C21.8755 27.6626 24.3379 30.125 27.3755 30.125Z" stroke="#C3272E" stroke-width="2.75" stroke-linecap="round" stroke-linejoin="round"/>
<path d="M46.6255 43.875V41.125C46.6246 39.9063 46.219 38.7225 45.4724 37.7594C44.7258 36.7963 43.6804 36.1084 42.5005 35.8037" stroke="#C3272E" stroke-width="2.75" stroke-linecap="round" stroke-linejoin="round"/>
<path d="M36.9995 19.3037C38.1826 19.6066 39.2312 20.2947 39.98 21.2594C40.7288 22.2241 41.1353 23.4106 41.1353 24.6318C41.1353 25.8531 40.7288 27.0396 39.98 28.0043C39.2312 28.969 38.1826 29.657 36.9995 29.96" stroke="#C3272E" stroke-width="2.75" stroke-linecap="round" stroke-linejoin="round"/>
</svg>
